<svg width="27" height="27" viewBox="0 0 27 27" fill="none" xmlns="http://www.w3.org/2000/svg">
<g clip-path="url(#clip0_0_3762)">
<g clip-path="url(#clip1_0_3762)">
<path fill-rule="evenodd" clip-rule="evenodd" d="M1.99954 1.99994H25.9998V25.9999H1.99954V1.99994Z" fill="black" fill-opacity="0.01"/>
<g clip-path="url(#clip2_0_3762)">
<path fill-rule="evenodd" clip-rule="evenodd" d="M5.66572 6.46929H7.57481L10.2943 17.3171C10.3744 17.6358 10.6378 17.8561 10.9381 17.8554H19.2982C19.5628 17.8549 19.8024 17.682 19.9088 17.4145L22.9459 9.70121C23.0334 9.4729 23.0129 9.21129 22.89 9.00338C22.768 8.79668 22.5588 8.67207 22.3349 8.67259H13.1012C12.7339 8.67259 12.4355 9.00163 12.4355 9.4072C12.4355 9.81311 12.7339 10.1421 13.1012 10.1421H21.3154L18.8507 16.3859H11.437L8.72046 5.53808C8.63992 5.21932 8.37651 4.99903 8.07654 4.99973H5.66572C5.29753 4.99973 4.99962 5.32878 4.99962 5.73469C4.99962 6.14024 5.29753 6.46929 5.66572 6.46929Z" fill="#1D1D1D"/>
<path fill-rule="evenodd" clip-rule="evenodd" d="M10.3649 22.9998C11.2661 22.9998 11.9967 22.2578 11.9971 21.3422C11.9971 20.4263 11.2665 19.684 10.3649 19.684C9.46462 19.6837 8.7336 20.4256 8.73319 21.3409C8.7336 22.2566 9.4638 22.9987 10.3649 22.9998Z" fill="#1D1D1D"/>
<path fill-rule="evenodd" clip-rule="evenodd" d="M19.4749 22.9998H19.5949C20.5149 22.9665 21.2385 22.1907 21.2221 21.2555C21.2061 20.3207 20.4553 19.5714 19.5349 19.5711C18.614 19.5711 17.8637 20.3207 17.8473 21.2555C17.8308 22.1907 18.5553 22.9665 19.4749 22.9998Z" fill="#1D1D1D"/>
</g>
</g>
</g>
<defs>
<clipPath id="clip0_0_3762">
<rect width="27" height="27" fill="white"/>
</clipPath>
<clipPath id="clip1_0_3762">
<rect width="27" height="27" fill="white"/>
</clipPath>
<clipPath id="clip2_0_3762">
<rect width="22" height="21" fill="white" transform="translate(3 3)"/>
</clipPath>
</defs>
</svg>
