<svg width="104" height="122" viewBox="0 0 104 122" fill="none" xmlns="http://www.w3.org/2000/svg">
<g clip-path="url(#clip0_0_1471)">
<path fill-rule="evenodd" clip-rule="evenodd" d="M100.333 43.3947C100.292 43.3947 100.252 43.399 100.211 43.4023C100.294 44.4212 99.723 45.5027 98.5006 45.6442V45.6507C98.5006 46.8961 99.3209 47.9065 100.333 47.9065C101.345 47.9065 102.166 46.8961 102.166 45.6507C102.166 44.4047 101.345 43.3947 100.333 43.3947Z" fill="#2D1E1E"/>
<path fill-rule="evenodd" clip-rule="evenodd" d="M99.2364 47.2596C97.1324 56.7757 91.2883 67.042 80.5802 68.1458C79.6868 68.2379 79.6774 69.6491 80.5802 69.5559C91.9438 68.384 98.3373 57.8504 100.596 47.6347C100.791 46.7506 99.4327 46.3732 99.2364 47.2596Z" fill="#2D1E1E"/>
<g clip-path="url(#clip1_0_1471)">
<path fill-rule="evenodd" clip-rule="evenodd" d="M39.6622 43.0978C39.5588 42.5179 39.0992 41.9762 38.5234 41.8565L38.5224 41.8553C38.4573 41.8115 38.3903 41.7748 38.3219 41.7412C38.1213 41.5268 37.7999 41.4178 37.3147 41.4849C36.6441 41.5769 36.1499 42.0438 35.8644 42.6377C35.2995 43.6446 35.4486 45.0606 36.4713 45.7286C38.1864 46.8492 39.9694 44.8236 39.6622 43.0978Z" fill="#EF9492"/>
<path fill-rule="evenodd" clip-rule="evenodd" d="M38.9519 44.1233C38.9972 45.0763 38.4059 45.8783 37.6319 45.915C36.8579 45.9517 36.1938 45.2091 36.1485 44.2562C36.1032 43.3037 36.6946 42.5017 37.4681 42.465C38.2426 42.4283 38.9066 43.1707 38.9519 44.1233Z" fill="#2D1E1E"/>
</g>
<path fill-rule="evenodd" clip-rule="evenodd" d="M40.1101 40.8606C39.4621 40.8606 39.4611 41.8675 40.1101 41.8675C40.7581 41.8675 40.759 40.8606 40.1101 40.8606Z" fill="white"/>
<path fill-rule="evenodd" clip-rule="evenodd" d="M63.6033 30.4571C62.9553 30.4571 62.9543 31.4638 63.6033 31.4638C64.2508 31.4638 64.2522 30.4571 63.6033 30.4571Z" fill="white"/>
<path fill-rule="evenodd" clip-rule="evenodd" d="M66.6237 33.8128C65.9757 33.8128 65.9748 34.8197 66.6237 34.8197C67.2712 34.8197 67.2727 33.8128 66.6237 33.8128Z" fill="white"/>
<path fill-rule="evenodd" clip-rule="evenodd" d="M85.53 81.8972C85.53 81.8972 75.0537 82.5768 62.4786 81.3183C51.3628 80.2106 38.606 77.593 29.9981 71.6627C29.5096 71.3255 29.0362 70.9781 28.5728 70.6207L28.8848 70.087L68.6102 2.1005H71.4291L72.0832 5.79566L82.6403 65.5613L82.8819 66.9356L83.5917 70.9429C82.8012 71.8439 82.9272 73.465 83.9693 74.1345C82.1721 74.8896 82.444 78.1064 84.79 78.1064H84.8599L85.53 81.8972Z" fill="#F45342"/>
<path opacity="0.08" fill-rule="evenodd" clip-rule="evenodd" d="M77.1223 115.681C72.4765 115.401 67.8481 115.545 63.2603 116.106C63.3075 116.092 63.356 116.08 63.4032 116.066C64.2579 115.805 64.0262 114.668 63.2027 114.582C56.5977 113.891 49.9767 113.802 43.3543 113.951C40.2975 113.121 37.1638 113.019 34.0843 113.638C28.9377 113.356 23.7788 113.292 18.6808 113.727C22.5678 112.63 26.535 111.821 30.5631 111.318C31.5079 111.2 31.5377 109.706 30.5631 109.808C23.9299 110.498 17.2971 111.188 10.6639 111.878C9.70674 111.978 9.69682 113.489 10.6639 113.388C12.68 113.179 14.6962 112.969 16.7123 112.759C14.6192 113.394 12.5488 114.109 10.5039 114.911C7.8085 115.481 5.1425 116.238 2.51746 117.231C1.79026 117.506 1.80482 118.815 2.71858 118.714L30.8179 115.615C30.9345 115.796 31.1365 115.919 31.4272 115.906C34.2976 115.775 37.1695 115.649 40.0413 115.555C41.6336 115.681 43.2227 115.817 44.8056 115.955C45.2204 115.991 45.4531 115.734 45.5111 115.422C49.9805 115.36 54.4485 115.425 58.9107 115.727C56.9994 116.2 55.0752 116.602 53.1388 116.928C49.2839 117.193 45.4347 117.553 41.5935 118.007C40.6553 118.118 40.5953 119.535 41.5935 119.517C45.5451 119.446 49.4628 119.076 53.3356 118.427C53.69 118.402 54.045 118.384 54.3999 118.362C54.4116 118.672 54.5849 118.972 54.9341 119.047C60.8632 120.327 66.8588 119.948 72.5628 117.874C72.9371 117.738 73.106 117.391 73.0863 117.066C74.4299 117.076 75.7749 117.11 77.1223 117.191C78.0931 117.25 78.0894 115.739 77.1223 115.681ZM59.5304 118.198C59.7914 118.152 60.0519 118.102 60.3134 118.058C62.3419 117.981 64.3717 117.933 66.4025 117.908C64.1315 118.268 61.834 118.368 59.5304 118.198Z" fill="#2D1E1E"/>
<path fill-rule="evenodd" clip-rule="evenodd" d="M18.7817 111.262C18.6203 111.192 18.4627 111.144 18.3088 111.113C18.1177 110.646 18.3971 110.001 19.0182 110.145C23.3922 111.157 26.4122 107.269 28.0513 103.771C29.9452 99.7287 31.412 95.4476 32.6344 91.1591C32.8793 90.2976 34.2782 90.4899 34.0299 91.3598C32.615 96.3225 31.017 101.582 28.4439 106.084C26.5859 109.335 23.3172 112.234 19.3792 111.645C19.2169 111.497 19.0196 111.366 18.7817 111.262Z" fill="#2D1E1E"/>
<path fill-rule="evenodd" clip-rule="evenodd" d="M19.1395 108.596C20.5157 109.198 21.3529 110.321 21.0098 111.106C20.8088 111.566 20.2438 111.806 19.5345 111.805C19.3485 111.589 19.1012 111.402 18.7817 111.262C18.2659 111.037 17.7859 111.03 17.3715 111.167C16.3177 110.539 15.7301 109.607 16.0265 108.928C16.3701 108.143 17.7633 107.994 19.1395 108.596Z" fill="#2D1E1E"/>
<path fill-rule="evenodd" clip-rule="evenodd" d="M64.0681 114.683C64.2446 114.683 64.4079 114.702 64.5613 114.736C64.9233 114.384 64.9257 113.681 64.2994 113.565C59.8852 112.74 58.6756 107.968 58.5751 104.106C58.4585 99.6435 58.829 95.1334 59.427 90.7139C59.5464 89.827 58.1881 89.4429 58.0668 90.3395C57.3759 95.4532 56.734 100.912 57.2886 106.068C57.6888 109.791 59.5232 113.756 63.3668 114.794C63.5759 114.724 63.809 114.683 64.0681 114.683Z" fill="#2D1E1E"/>
<path fill-rule="evenodd" clip-rule="evenodd" d="M67.5827 2L27.4807 69.8604L26.7709 71.0635C25.7038 71.2448 24.682 71.3959 23.7103 71.5168C22.4771 71.6676 21.3241 71.7684 20.2466 71.839H20.2311C17.4626 72.0152 15.227 71.9397 13.5766 71.7987C11.3212 71.6074 10.138 71.2852 10.138 71.2852L14.1505 65.2392L18.9983 57.9347L19.8139 56.7063L23.6046 50.9974C23.9014 51.1989 24.279 51.3196 24.7316 51.3196C26.9172 51.3196 27.3047 48.5308 25.8997 47.5389L26.9573 45.9433C27.0574 45.9531 27.1636 45.9632 27.2693 45.9632C29.0712 45.9632 29.6507 44.0703 29.0108 42.8472L56.0247 2.15081L58.0432 2.12565C58.1942 2.79017 58.6374 3.38439 59.377 3.59078C59.5586 3.6411 59.7602 3.67121 59.9815 3.67121C60.9934 3.67121 61.6178 3.06715 61.8542 2.32708C62.1209 2.46309 62.4333 2.53864 62.8 2.53864C63.3743 2.53864 63.8227 2.34735 64.1498 2.04514L65.3278 2.03012L67.5827 2Z" fill="#F26B61"/>
<path fill-rule="evenodd" clip-rule="evenodd" d="M85.53 83.0248C85.53 83.0248 85.4239 83.1808 85.2228 83.4628C85.2228 83.4677 85.2228 83.4677 85.2176 83.4729C85.1019 83.639 84.9505 83.8503 84.7697 84.1021C84.226 84.8622 83.4256 85.9699 82.4741 87.2333C81.9857 87.8828 81.4524 88.5725 80.8978 89.2822C80.5915 89.0608 80.1989 88.925 79.7156 88.925C77.6863 88.925 77.2086 91.3363 78.2851 92.4738C78.0845 92.7056 77.883 92.9372 77.6815 93.1636C77.6112 93.1586 77.5356 93.1534 77.4601 93.1534C76.0146 93.1534 75.3605 94.3719 75.4813 95.4843C74.6261 96.315 73.8205 96.9847 73.1253 97.4076C73.1253 97.4076 73.0597 97.4076 72.9294 97.4125C72.441 97.4275 71.0459 97.4629 68.9368 97.4527C68.0665 97.4478 67.0792 97.4325 65.9819 97.4076C65.8111 97.4076 65.6346 97.4024 65.4637 97.3974C64.3711 97.3671 63.1828 97.332 61.8995 97.2715C61.5875 97.2614 61.2648 97.2412 60.9429 97.2261C59.7601 97.1708 58.5015 97.1005 57.1875 97.0096C55.7679 96.9141 54.2827 96.7983 52.7319 96.6574H52.7272C51.8205 96.5717 50.8946 96.4863 49.9431 96.3856C49.7015 96.3604 49.4646 96.3352 49.2234 96.31C48.0502 96.1841 46.8575 96.0432 45.6343 95.8872H45.629C44.9093 95.7965 44.1736 95.7008 43.4392 95.6C42.2857 95.4391 41.1135 95.268 39.9255 95.0767C37.4889 94.6941 34.9969 94.246 32.4597 93.7326C31.3974 93.5161 30.3251 93.2895 29.2477 93.0478C29.0618 93.0076 28.8805 92.9673 28.6889 92.9219C28.6487 92.912 28.6134 92.9019 28.5728 92.897C28.5728 92.897 27.0125 92.7358 24.7774 92.2475H24.7727C24.4102 92.167 24.0223 92.0813 23.6248 91.9806C22.512 91.7036 21.284 91.3563 20.0253 90.9184C18.0115 90.2136 15.9222 89.2723 14.1203 88.0388C13.4652 87.5858 12.8465 87.1024 12.2829 86.569C12.0716 86.3675 11.8596 86.156 11.6586 85.9397C11.3112 85.562 10.9889 85.1644 10.6963 84.7415V81.575C12.1418 80.8804 12.1418 78.5342 10.6963 77.8396V72.0303C10.6963 72.0303 13.7933 73.0824 18.7864 73.1527C20.1211 73.173 21.596 73.1226 23.1869 72.9565C23.7603 72.9012 24.3498 72.8256 24.9534 72.735C25.9553 72.5889 26.9969 72.3926 28.0749 72.1409C28.241 72.1107 28.4071 72.0705 28.5728 72.0303C28.5728 72.0303 28.6285 72.0856 28.7446 72.1964C28.83 72.2719 28.9451 72.3776 29.0966 72.5035C29.1018 72.5134 29.1066 72.5186 29.117 72.5235C29.4997 72.8407 30.0934 73.2989 30.9391 73.8424C32.0114 74.5371 33.4919 75.373 35.4595 76.2538C36.2656 76.6164 37.1566 76.9837 38.1326 77.3562C38.4153 77.4671 38.707 77.5779 39.0137 77.6836C39.8949 78.0008 40.8412 78.3177 41.8633 78.635C42.4023 78.8011 42.9658 78.9672 43.5496 79.1284C44.2902 79.3397 45.0651 79.5412 45.8754 79.7475C47.7632 80.2158 49.837 80.6587 52.1132 81.0616C53.0745 81.2376 54.0713 81.3988 55.1035 81.5548C55.4659 81.6052 55.8232 81.6605 56.1908 81.7108C56.6439 81.7762 57.1064 81.8367 57.575 81.8972H57.5854C58.0833 81.9626 58.5921 82.0231 59.1108 82.0835C59.3718 82.1137 59.6393 82.1438 59.9107 82.1742C60.6913 82.2596 61.4917 82.3452 62.3125 82.4208C64.2758 82.602 66.3547 82.7531 68.5446 82.8688C69.5918 82.9293 70.6641 82.9745 71.7561 83.0098C72.2498 83.0298 72.7478 83.0451 73.2509 83.0601C74.2184 83.0853 75.2047 83.1053 76.2062 83.1154H76.3525C77.1477 83.1255 77.9533 83.1305 78.774 83.1305C79.9213 83.1305 81.0946 83.1204 82.2981 83.1004H82.3028C83.3251 83.0801 84.3671 83.0601 85.4285 83.0298C85.4644 83.0298 85.4946 83.0248 85.53 83.0248Z" fill="#20603B"/>
<path fill-rule="evenodd" clip-rule="evenodd" d="M18.7855 73.1544C16.4871 75.1433 14.0533 76.9536 11.4929 78.5862C12.0593 79.5725 11.7936 81.0489 10.6986 81.5764V82.369C15.2242 79.7497 19.4118 76.586 23.1841 72.9569C21.5964 73.1205 20.1221 73.1716 18.7855 73.1544Z" fill="#339D6D"/>
<path fill-rule="evenodd" clip-rule="evenodd" d="M29.0943 72.5028C24.0978 77.9422 18.1932 82.4932 11.66 85.9416C11.3108 85.5635 10.9889 85.1632 10.6986 84.7429V83.2599C15.9406 80.4347 20.7257 76.9018 24.9548 72.7343C26.1135 72.5647 27.3207 72.3338 28.5723 72.0291C28.5723 72.0291 28.7333 72.2013 29.0943 72.5028Z" fill="#339D6D"/>
<path fill-rule="evenodd" clip-rule="evenodd" d="M38.1312 77.3558C36.1405 80.2852 33.5122 82.9185 31.1161 85.4397C28.8267 87.8475 26.365 90.1058 23.6268 91.9811C22.513 91.7048 21.284 91.3577 20.0262 90.9179C23.4663 88.9389 26.3985 86.3106 29.1226 83.446C31.2624 81.1933 33.6193 78.8444 35.4609 76.2533C36.2675 76.6143 37.1557 76.9833 38.1312 77.3558Z" fill="#339D6D"/>
<path fill-rule="evenodd" clip-rule="evenodd" d="M41.8615 78.6331C39.623 81.3767 37.4006 84.1344 35.0914 86.8186C33.1601 89.0629 31.0817 91.1831 28.6913 92.92C28.6913 92.9231 28.6913 92.9231 28.6879 92.92C28.6488 92.912 28.612 92.9033 28.5723 92.8948C28.5723 92.8948 27.0135 92.7343 24.7769 92.2465C24.8845 92.0827 25.0393 91.9364 25.2451 91.8149C28.4487 89.9366 31.0114 87.2752 33.4027 84.4666C35.3061 82.2335 37.1585 79.9579 39.0137 77.6826C39.8963 78.0012 40.8435 78.3199 41.8615 78.6331Z" fill="#339D6D"/>
<path fill-rule="evenodd" clip-rule="evenodd" d="M55.1053 81.5543C52.0377 86.8577 48.0926 91.6147 43.4378 95.5986C42.2843 95.4382 41.1116 95.2659 39.9241 95.0772C39.9978 94.8828 40.1304 94.6967 40.3385 94.5275C45.0249 90.7266 48.9922 86.1922 52.1113 81.0635C53.0726 81.2357 54.0703 81.3988 55.1053 81.5543Z" fill="#339D6D"/>
<path fill-rule="evenodd" clip-rule="evenodd" d="M59.1093 82.0845C56.5972 87.3345 53.2723 92.1392 49.2211 96.3095C48.0506 96.1827 46.8547 96.0441 45.6314 95.889C49.9507 91.8119 53.5403 87.0158 56.1908 81.7094C57.1328 81.8419 58.1055 81.9657 59.1093 82.0845Z" fill="#339D6D"/>
<path fill-rule="evenodd" clip-rule="evenodd" d="M71.7585 83.0117C68.7187 88.152 65.0842 92.9261 60.9419 97.2287C59.7578 97.1694 58.5029 97.0988 57.1866 97.0087C61.5427 92.7623 65.3495 88.0223 68.5441 82.8707C69.5904 82.9272 70.6613 82.9749 71.7585 83.0117Z" fill="#339D6D"/>
<path fill-rule="evenodd" clip-rule="evenodd" d="M76.2076 83.1159C75.2038 83.1048 74.2169 83.0853 73.2527 83.0601C70.354 88.3605 65.7157 92.6129 61.9009 97.2734C63.1809 97.3299 64.3706 97.3696 65.4623 97.3979C67.7375 94.756 70.1346 92.198 72.2687 89.466C73.8224 87.4754 75.2349 85.3945 76.3539 83.1159H76.2076Z" fill="#339D6D"/>
<path fill-rule="evenodd" clip-rule="evenodd" d="M77.724 91.0182C76.2458 93.2356 74.6478 95.3742 72.9285 97.4146L73.1234 97.4064C73.8205 96.987 74.6252 96.315 75.4836 95.4845C75.359 94.3719 76.0174 93.153 77.4606 93.153C77.5366 93.153 77.6098 93.1577 77.681 93.164C77.8821 92.9372 78.0827 92.7066 78.2837 92.4734C77.9179 92.0872 77.7306 91.5552 77.724 91.0182Z" fill="#339D6D"/>
<path fill-rule="evenodd" clip-rule="evenodd" d="M82.3009 83.0994H82.2981C81.2948 85.1335 80.1894 87.1156 78.9954 89.0427C79.2097 88.9671 79.4485 88.9238 79.7165 88.9238C80.1984 88.9238 80.5911 89.0603 80.8978 89.2817C82.8791 86.7608 84.5493 84.4238 85.2195 83.4743C85.2223 83.4689 85.2223 83.4658 85.2247 83.4628C85.2926 83.3192 85.3634 83.1729 85.4309 83.0288C84.3681 83.0601 83.3246 83.0822 82.3009 83.0994Z" fill="#339D6D"/>
<path fill-rule="evenodd" clip-rule="evenodd" d="M30.9382 73.8425C26.3735 79.6339 20.2235 83.9339 14.1193 88.0395C13.4647 87.5884 12.847 87.1006 12.2835 86.5704C12.3113 86.5447 12.3424 86.5221 12.3764 86.4998C18.4079 82.4509 24.5966 78.258 29.1165 72.5225C29.4978 72.8412 30.092 73.2984 30.9382 73.8425Z" fill="#36B590"/>
<path fill-rule="evenodd" clip-rule="evenodd" d="M45.8768 79.7466C42.0276 84.9942 37.8886 90.1315 32.4607 93.7321C31.3979 93.518 30.3261 93.2895 29.2496 93.0468C35.1872 89.7425 39.5551 84.5259 43.5473 79.1294C44.2896 79.3378 45.0674 79.5438 45.8768 79.7466Z" fill="#36B590"/>
<path fill-rule="evenodd" clip-rule="evenodd" d="M62.3096 82.4198C59.7465 87.5601 56.5235 92.339 52.7314 96.6564H52.7281C51.8206 96.5743 50.8927 96.4841 49.9427 96.3855C53.9014 92.1079 57.2428 87.3316 59.9098 82.1746C60.6913 82.2617 61.4917 82.3438 62.3096 82.4198Z" fill="#36B590"/>
<path fill-rule="evenodd" clip-rule="evenodd" d="M76.3539 83.1159C77.1463 83.1274 77.9529 83.1331 78.7736 83.1305C76.033 88.2508 72.7312 93.0468 68.9358 97.4513C68.0674 97.4483 67.0806 97.4346 65.9805 97.409C65.9923 97.3922 66.0064 97.3777 66.0206 97.3612C68.2788 94.8656 70.3653 92.2263 72.2687 89.466C73.6841 87.4131 75.0008 85.2957 76.2076 83.1159H76.3539Z" fill="#36B590"/>
<path fill-rule="evenodd" clip-rule="evenodd" d="M47.7457 56.2394C46.2945 56.2394 46.2921 58.4949 47.7457 58.4949C49.1979 58.4949 49.1998 56.2394 47.7457 56.2394Z" fill="#2D1E1E"/>
<path fill-rule="evenodd" clip-rule="evenodd" d="M73.4052 58.7768C71.9539 58.7768 71.9511 61.0326 73.4052 61.0326C74.8564 61.0326 74.8588 58.7768 73.4052 58.7768Z" fill="#2D1E1E"/>
<path fill-rule="evenodd" clip-rule="evenodd" d="M65.4774 70.0465C62.018 74.3587 55.4494 73.6057 53.0816 68.6012C52.6937 67.7816 51.4779 68.496 51.864 69.3126C54.597 75.0887 62.4691 76.0352 66.4746 71.0433C67.0367 70.3425 66.0451 69.3387 65.4774 70.0465Z" fill="#2D1E1E"/>
<path fill-rule="evenodd" clip-rule="evenodd" d="M22.8405 57.2442C20.3165 56.9044 17.7373 56.4559 15.7197 54.7797C13.9301 53.292 12.7176 51.1963 11.9087 49.0412C9.99592 43.943 9.88311 38.2805 11.2598 33.0426C11.4906 32.1641 10.1314 31.7895 9.90011 32.6675C8.40544 38.3556 8.55882 44.6151 10.8157 50.0917C11.7218 52.2908 13.0169 54.394 14.883 55.9057C17.0742 57.6798 19.7332 58.2361 22.4658 58.6036C23.353 58.723 23.7372 57.3647 22.8405 57.2442Z" fill="#2D1E1E"/>
<path fill-rule="evenodd" clip-rule="evenodd" d="M11.1041 29.9686C10.9738 29.9324 10.8383 29.9114 10.6986 29.9114C9.68679 29.9114 8.86607 30.9216 8.86607 32.1672C8.86607 33.4132 9.68679 34.423 10.6986 34.423C11.4882 34.423 12.1593 33.8074 12.417 32.9454C11.03 32.6524 10.5934 31.0741 11.1041 29.9686Z" fill="#2D1E1E"/>
<path fill-rule="evenodd" clip-rule="evenodd" d="M64.8081 112.097C63.3064 112.097 62.0892 112.791 62.0892 113.647C62.0892 114.15 62.5107 114.596 63.1606 114.879C63.4178 114.755 63.7194 114.683 64.0681 114.683C64.6312 114.683 65.0734 114.869 65.3976 115.16C66.6157 115.007 67.527 114.388 67.527 113.647C67.527 112.791 66.3099 112.097 64.8081 112.097Z" fill="#2D1E1E"/>
<path fill-rule="evenodd" clip-rule="evenodd" d="M48.3173 50.7346C46.8915 51.3942 45.4653 52.0535 44.04 52.7131C43.3816 53.0176 43.9536 53.9902 44.6092 53.6871C46.0349 53.0278 47.4612 52.3677 48.8869 51.7083C49.5448 51.4043 48.9723 50.4317 48.3173 50.7346Z" fill="#2D1E1E"/>
<path fill-rule="evenodd" clip-rule="evenodd" d="M76.8178 56.45C76.1458 55.2558 75.1599 54.2832 73.9545 53.6318C73.316 53.2871 72.7459 54.2601 73.3849 54.6061C74.4307 55.1703 75.2613 55.9834 75.8442 57.0188C76.2001 57.6515 77.1746 57.0837 76.8178 56.45Z" fill="#2D1E1E"/>
<g clip-path="url(#clip2_0_1471)">
<path fill-rule="evenodd" clip-rule="evenodd" d="M67.5572 19.4755C67.696 18.7189 67.3807 17.8459 66.7309 17.4358L66.7299 17.4341C66.6709 17.351 66.6048 17.2755 66.5369 17.203C66.3892 16.8491 66.0451 16.5693 65.4207 16.4293C64.558 16.2361 63.7406 16.5808 63.12 17.1785C61.9684 18.1516 61.5045 19.9532 62.4512 21.238C64.0384 23.3926 67.1457 21.7273 67.5572 19.4755Z" fill="#EF9492"/>
<path fill-rule="evenodd" clip-rule="evenodd" d="M66.2193 20.4059C65.8398 21.5924 64.7506 22.3043 63.7864 21.9955C62.8222 21.687 62.3483 20.4754 62.7287 19.2886C63.1082 18.1022 64.1974 17.3903 65.1616 17.6988C66.1258 18.0076 66.5992 19.2197 66.2193 20.4059Z" fill="#2D1E1E"/>
</g>
<g clip-path="url(#clip3_0_1471)">
<path fill-rule="evenodd" clip-rule="evenodd" d="M71.414 30.6619C71.6439 30.1197 71.5547 29.4154 71.1379 29L71.1365 28.9986C71.1068 28.9266 71.0704 28.8591 71.0313 28.7937C70.9808 28.5047 70.7703 28.2381 70.3271 28.0291C69.715 27.7406 69.0467 27.8613 68.4832 28.2037C67.46 28.7384 66.8125 30.0065 67.3043 31.125C68.1297 33.0002 70.7302 32.2754 71.414 30.6619Z" fill="#EF9492"/>
<path fill-rule="evenodd" clip-rule="evenodd" d="M70.2587 31.1337C69.7764 31.9561 68.8438 32.306 68.175 31.914C67.5067 31.5222 67.3557 30.5376 67.8376 29.7149C68.3194 28.892 69.253 28.5426 69.9212 28.9341C70.59 29.326 70.741 30.3105 70.2587 31.1337Z" fill="#2D1E1E"/>
</g>
<g clip-path="url(#clip4_0_1471)">
<path fill-rule="evenodd" clip-rule="evenodd" d="M24.3545 65.3065C24.3791 65.0307 24.2365 64.7288 23.9892 64.6038V64.6034C23.9651 64.5756 23.9387 64.5509 23.9123 64.5273C23.8472 64.4054 23.7145 64.317 23.4861 64.2876C23.1709 64.2478 22.8891 64.3989 22.6876 64.6339C22.3077 65.0222 22.2029 65.6832 22.5856 66.111C23.227 66.829 24.2837 66.127 24.3545 65.3065Z" fill="#EF9492"/>
<path fill-rule="evenodd" clip-rule="evenodd" d="M23.9071 65.6851C23.8113 66.123 23.4455 66.4151 23.0897 66.3369C22.7338 66.2591 22.5233 65.8411 22.6187 65.4032C22.7145 64.9653 23.0807 64.6737 23.4366 64.7514C23.7924 64.8293 24.0029 65.2472 23.9071 65.6851Z" fill="#2D1E1E"/>
</g>
<g clip-path="url(#clip5_0_1471)">
<path fill-rule="evenodd" clip-rule="evenodd" d="M52.7928 15.1633C52.8164 14.8879 52.6738 14.5858 52.427 14.4608L52.4265 14.4604C52.4029 14.4328 52.377 14.4077 52.3501 14.3839C52.2854 14.262 52.1523 14.174 51.9239 14.1448C51.6087 14.105 51.3274 14.2561 51.1254 14.4912C50.7459 14.8788 50.6407 15.5398 51.0239 15.9683C51.6648 16.686 52.7215 15.9838 52.7928 15.1633Z" fill="#EF9492"/>
<path fill-rule="evenodd" clip-rule="evenodd" d="M52.3454 15.5424C52.2496 15.9798 51.8829 16.2719 51.5275 16.1942C51.1716 16.1163 50.9607 15.6984 51.0565 15.2605C51.1528 14.8225 51.5185 14.5305 51.8739 14.6084C52.2297 14.686 52.4407 15.1044 52.3454 15.5424Z" fill="#2D1E1E"/>
</g>
<g clip-path="url(#clip6_0_1471)">
<path fill-rule="evenodd" clip-rule="evenodd" d="M62.9756 26.7671C63.0001 26.4915 62.8576 26.1896 62.6107 26.0647L62.6103 26.0642C62.5862 26.0364 62.5598 26.0112 62.5333 25.9877C62.4682 25.8658 62.3356 25.7778 62.1072 25.7486C61.7919 25.7089 61.5102 25.8599 61.3086 26.095C60.9287 26.4826 60.8244 27.1436 61.2067 27.5719C61.8485 28.2898 62.9048 27.5876 62.9756 26.7671Z" fill="#EF9492"/>
<path fill-rule="evenodd" clip-rule="evenodd" d="M62.5281 27.146C62.4328 27.5841 62.0666 27.8754 61.7107 27.798C61.3549 27.7199 61.1444 27.3022 61.2402 26.864C61.3355 26.4261 61.7018 26.1341 62.0576 26.2122C62.4135 26.2903 62.624 26.708 62.5281 27.146Z" fill="#2D1E1E"/>
</g>
<g clip-path="url(#clip7_0_1471)">
<path fill-rule="evenodd" clip-rule="evenodd" d="M60.0721 32.5861C60.0665 31.99 59.7002 31.3718 59.1457 31.1549L59.1443 31.1532C59.0876 31.0988 59.0263 31.0511 58.964 31.0057C58.7997 30.7581 58.4977 30.5955 58.0022 30.58C57.3178 30.5588 56.7458 30.9402 56.3607 31.485C55.6268 32.3936 55.5367 33.8318 56.4438 34.6712C57.9658 36.0791 60.0872 34.359 60.0721 32.5861Z" fill="#EF9492"/>
<path fill-rule="evenodd" clip-rule="evenodd" d="M59.1896 33.4885C59.074 34.4465 58.349 35.1473 57.5708 35.0527C56.7925 34.9585 56.255 34.1058 56.3711 33.1478C56.4867 32.1898 57.2116 31.4895 57.9899 31.5836C58.7686 31.6777 59.3061 32.5305 59.1896 33.4885Z" fill="#2D1E1E"/>
</g>
<g clip-path="url(#clip8_0_1471)">
<path fill-rule="evenodd" clip-rule="evenodd" d="M36.1504 39.0439C36.2009 38.5036 35.9446 37.916 35.4902 37.6774L35.4897 37.6765C35.4458 37.6226 35.3981 37.5748 35.3495 37.5289C35.232 37.2924 34.988 37.1223 34.5656 37.071C33.9818 37.0004 33.4575 37.3035 33.078 37.7683C32.3654 38.5363 32.1554 39.8327 32.8538 40.6617C34.0248 42.0513 35.9989 40.6516 36.1504 39.0439Z" fill="#EF9492"/>
<path fill-rule="evenodd" clip-rule="evenodd" d="M35.3122 39.796C35.1244 40.6552 34.4391 41.2357 33.7817 41.0917C33.1247 40.9484 32.7439 40.1351 32.9322 39.276C33.12 38.4161 33.8053 37.836 34.4623 37.9796C35.1197 38.1236 35.4996 38.9366 35.3122 39.796Z" fill="#2D1E1E"/>
</g>
<g clip-path="url(#clip9_0_1471)">
<path fill-rule="evenodd" clip-rule="evenodd" d="M20.6672 66.8546C20.7186 66.3144 20.4619 65.727 20.0078 65.4884L20.0069 65.4872C19.963 65.4336 19.9154 65.3856 19.8663 65.3399C19.7488 65.1032 19.5052 64.933 19.0828 64.8817C18.4995 64.8111 17.9747 65.1142 17.5948 65.579C16.8831 66.3471 16.6721 67.6434 17.3706 68.472C18.5424 69.862 20.5161 68.4626 20.6672 66.8546Z" fill="#EF9492"/>
<path fill-rule="evenodd" clip-rule="evenodd" d="M19.829 67.6067C19.6411 68.4661 18.9559 69.0464 18.2989 68.9024C17.6415 68.7591 17.2616 67.9456 17.4494 67.0862C17.6373 66.2268 18.322 65.6463 18.9795 65.7903C19.6369 65.9338 20.0173 66.7473 19.829 67.6067Z" fill="#2D1E1E"/>
</g>
<g clip-path="url(#clip10_0_1471)">
<path fill-rule="evenodd" clip-rule="evenodd" d="M44.4043 34.3147C44.4709 33.5485 44.0749 32.7094 43.3887 32.3625L43.3878 32.3604C43.3207 32.2834 43.2485 32.2145 43.174 32.1486C42.9937 31.8102 42.6246 31.5645 41.9898 31.4841C41.113 31.3728 40.3314 31.793 39.7698 32.4465C38.7155 33.5243 38.4238 35.3614 39.4876 36.5514C41.2706 38.5465 44.2071 36.5957 44.4043 34.3147Z" fill="#EF9492"/>
<path fill-rule="evenodd" clip-rule="evenodd" d="M43.1603 35.3673C42.8941 36.5846 41.8766 37.3958 40.8878 37.1797C39.8991 36.9632 39.3134 35.8012 39.5796 34.5846C39.8453 33.3673 40.8628 32.5557 41.852 32.7722C42.8408 32.9882 43.4265 34.1507 43.1603 35.3673Z" fill="#2D1E1E"/>
</g>
<g clip-path="url(#clip11_0_1471)">
<path fill-rule="evenodd" clip-rule="evenodd" d="M68.1897 39.4087C67.9867 38.8846 67.4581 38.462 66.897 38.4547L66.8956 38.4537C66.8271 38.4246 66.7573 38.4029 66.6874 38.3834C66.4604 38.2196 66.14 38.1765 65.6978 38.3278C65.0866 38.5363 64.7095 39.063 64.5509 39.6715C64.2055 40.7166 64.6038 42.0151 65.6831 42.4539C67.4935 43.19 68.7923 40.9679 68.1897 39.4087Z" fill="#EF9492"/>
<path fill-rule="evenodd" clip-rule="evenodd" d="M67.712 40.4982C67.9277 41.3816 67.5214 42.2405 66.804 42.4163C66.0857 42.5918 65.3287 42.0181 65.1125 41.1345C64.8964 40.2511 65.3027 39.3927 66.0206 39.2169C66.7384 39.0413 67.4954 39.6153 67.712 40.4982Z" fill="#2D1E1E"/>
</g>
<g clip-path="url(#clip12_0_1471)">
<path fill-rule="evenodd" clip-rule="evenodd" d="M70.8784 10.2192C70.9204 9.73799 70.6716 9.21134 70.2412 8.99344L70.2403 8.99226C70.1983 8.94402 70.1525 8.90025 70.1062 8.85884C69.9925 8.64658 69.7608 8.49244 69.3624 8.44161C68.8117 8.3722 68.3209 8.63598 67.9688 9.04615C67.3066 9.72269 67.1235 10.8762 67.7909 11.6231C68.9113 12.8762 70.7547 11.6509 70.8784 10.2192Z" fill="#EF9492"/>
<path fill-rule="evenodd" clip-rule="evenodd" d="M70.0973 10.8802C69.9302 11.6443 69.2917 12.1538 68.6706 12.018C68.05 11.882 67.6818 11.1525 67.8489 10.3884C68.016 9.62409 68.655 9.11463 69.2756 9.25064C69.8967 9.38642 70.2643 10.1159 70.0973 10.8802Z" fill="#2D1E1E"/>
</g>
<g clip-path="url(#clip13_0_1471)">
<path fill-rule="evenodd" clip-rule="evenodd" d="M57.8771 12.3178C57.9186 11.8366 57.6704 11.3102 57.2395 11.092L57.239 11.0911C57.197 11.0428 57.1512 10.9995 57.1045 10.9581C56.9912 10.7456 56.7595 10.5913 56.3607 10.5404C55.8109 10.4708 55.3201 10.7346 54.9675 11.145C54.3054 11.8215 54.1218 12.9748 54.7896 13.7219C55.9095 14.975 57.753 13.7502 57.8771 12.3178Z" fill="#EF9492"/>
<path fill-rule="evenodd" clip-rule="evenodd" d="M57.096 12.9788C56.9289 13.7431 56.2899 14.2526 55.6693 14.1166C55.0487 13.9808 54.6806 13.2513 54.8476 12.487C55.0147 11.7229 55.6537 11.2139 56.2743 11.3495C56.895 11.4852 57.2631 12.2147 57.096 12.9788Z" fill="#2D1E1E"/>
</g>
<path fill-rule="evenodd" clip-rule="evenodd" d="M43.6252 60.5356C41.2649 60.5356 39.0048 62.6107 39.1133 65.0467C39.2233 67.4914 41.096 69.5585 43.6252 69.5585C45.9849 69.5585 48.2455 67.4834 48.1365 65.0467C48.027 62.6027 46.1543 60.5356 43.6252 60.5356Z" fill="#F21100"/>
<path fill-rule="evenodd" clip-rule="evenodd" d="M74.359 63.6371C71.9992 63.6371 69.7386 65.7124 69.8476 68.1489C69.9571 70.5929 71.8298 72.66 74.359 72.66C76.7192 72.66 78.9798 70.5849 78.8708 68.1489C78.7609 65.7042 76.8882 63.6371 74.359 63.6371Z" fill="#F21100"/>
<path fill-rule="evenodd" clip-rule="evenodd" d="M47.0742 56.0471C46.4266 56.0471 46.4252 57.0541 47.0742 57.0541C47.7221 57.0541 47.7231 56.0471 47.0742 56.0471Z" fill="white"/>
<path fill-rule="evenodd" clip-rule="evenodd" d="M72.4971 58.5644C71.8491 58.5644 71.8482 59.571 72.4971 59.571C73.1447 59.571 73.1461 58.5644 72.4971 58.5644Z" fill="white"/>
<path fill-rule="evenodd" clip-rule="evenodd" d="M69.6442 92.1256C69.3204 92.1256 69.3195 92.6289 69.6442 92.6289C69.968 92.6289 69.9684 92.1256 69.6442 92.1256Z" fill="white"/>
<path fill-rule="evenodd" clip-rule="evenodd" d="M73.0002 90.4473C72.676 90.4473 72.6755 90.9506 73.0002 90.9506C73.324 90.9506 73.3245 90.4473 73.0002 90.4473Z" fill="white"/>
<path fill-rule="evenodd" clip-rule="evenodd" d="M72.3287 92.6289C71.3574 92.6289 71.3555 94.1392 72.3287 94.1392C73.3009 94.1392 73.3023 92.6289 72.3287 92.6289Z" fill="white"/>
<path fill-rule="evenodd" clip-rule="evenodd" d="M38.0963 38.5116C37.4487 38.5116 37.4473 39.5186 38.0963 39.5186C38.7442 39.5186 38.7452 38.5116 38.0963 38.5116Z" fill="white"/>
<path fill-rule="evenodd" clip-rule="evenodd" d="M22.3228 68.0451C21.6748 68.0451 21.6738 69.0521 22.3228 69.0521C22.9708 69.0521 22.9717 68.0451 22.3228 68.0451Z" fill="white"/>
<path fill-rule="evenodd" clip-rule="evenodd" d="M69.9798 22.4024C69.3318 22.4024 69.3308 23.4091 69.9798 23.4091C70.6277 23.4091 70.6287 22.4024 69.9798 22.4024Z" fill="white"/>
<path fill-rule="evenodd" clip-rule="evenodd" d="M15.9463 82.4765C15.2983 82.4765 15.2973 83.4835 15.9463 83.4835C16.5942 83.4835 16.5952 82.4765 15.9463 82.4765Z" fill="white"/>
<path fill-rule="evenodd" clip-rule="evenodd" d="M46.4871 21.0597C45.8391 21.0597 45.8381 22.0666 46.4871 22.0666C47.1346 22.0666 47.136 21.0597 46.4871 21.0597Z" fill="white"/>
<path fill-rule="evenodd" clip-rule="evenodd" d="M51.1853 19.7172C50.5373 19.7172 50.5364 20.7239 51.1853 20.7239C51.8333 20.7239 51.8342 19.7172 51.1853 19.7172Z" fill="white"/>
<path fill-rule="evenodd" clip-rule="evenodd" d="M50.8502 24.416C50.2022 24.416 50.2013 25.4229 50.8502 25.4229C51.4977 25.4229 51.4987 24.416 50.8502 24.416Z" fill="white"/>
<path fill-rule="evenodd" clip-rule="evenodd" d="M66.2877 11.3271C65.6397 11.3271 65.6388 12.334 66.2877 12.334C66.9357 12.334 66.9366 11.3271 66.2877 11.3271Z" fill="white"/>
<path fill-rule="evenodd" clip-rule="evenodd" d="M70.9869 4.61462C70.3389 4.61462 70.338 5.62155 70.9869 5.62155C71.6344 5.62155 71.6358 4.61462 70.9869 4.61462Z" fill="white"/>
<path fill-rule="evenodd" clip-rule="evenodd" d="M56.2196 5.28622C55.5716 5.28622 55.5707 6.29291 56.2196 6.29291C56.8671 6.29291 56.8685 5.28622 56.2196 5.28622Z" fill="white"/>
<path fill-rule="evenodd" clip-rule="evenodd" d="M33.734 42.5391C33.086 42.5391 33.0851 43.5458 33.734 43.5458C34.3815 43.5458 34.383 42.5391 33.734 42.5391Z" fill="white"/>
<path fill-rule="evenodd" clip-rule="evenodd" d="M61.2534 36.498C60.6059 36.498 60.605 37.5049 61.2534 37.5049C61.9014 37.5049 61.9023 36.498 61.2534 36.498Z" fill="white"/>
<path opacity="0.21" fill-rule="evenodd" clip-rule="evenodd" d="M72.0832 5.79569C71.3786 6.76214 70.6891 7.74393 70.0194 8.73555C69.8736 8.94711 69.7273 9.16359 69.5814 9.38007C69.083 10.13 68.5847 10.8852 68.1014 11.6452C68.0608 11.7058 68.0254 11.761 67.9952 11.8165C67.0291 13.3216 66.1032 14.847 65.2017 16.3925C64.9502 16.8053 64.7086 17.2282 64.4716 17.6461C63.868 18.6933 63.2785 19.7504 62.6999 20.8126C62.6192 20.9536 62.539 21.0994 62.4635 21.2456C60.7914 24.3215 59.2014 27.4476 57.6708 30.604C57.4646 31.0219 57.2626 31.4395 57.0616 31.8624C56.8303 32.351 56.5934 32.8341 56.3621 33.3275C56.2413 33.5742 56.1252 33.826 56.0039 34.0775C54.3233 37.6367 52.697 41.2162 51.0758 44.7852C50.2102 46.6982 49.2787 48.6767 48.4277 50.7004C48.2167 51.1988 48.0147 51.6972 47.8189 52.2006C46.6957 55.0499 45.7952 57.9798 45.4931 60.95C45.3062 62.7674 45.3473 64.5946 45.6947 66.4322C45.8452 67.2175 46.0467 67.9524 46.3086 68.6421C48.5037 74.5423 54.4186 76.9284 60.2831 78.9371C61.5574 79.3701 62.2568 80.3012 62.4786 81.3183C51.3628 80.2107 38.6059 77.593 29.9981 71.6627C29.5445 71.1794 29.1622 70.661 28.8847 70.087L68.6102 2.10044H71.4291L72.0832 5.79569Z" fill="#2D1E1E"/>
<path opacity="0.22" fill-rule="evenodd" clip-rule="evenodd" d="M85.53 83.0248C85.53 83.0248 85.4239 83.1809 85.2228 83.4628C85.2228 83.4677 85.2228 83.4677 85.2176 83.4729C85.1019 83.639 84.9505 83.8503 84.7697 84.1021C84.226 84.8622 83.4256 85.9699 82.4741 87.2333C78.7439 87.5455 75.0131 87.6463 71.2979 87.3592C65.8413 87.2283 60.3992 86.7351 55.0076 85.8842C51.0409 85.9647 47.0992 85.8691 43.3486 84.7615C42.8898 85.2197 42.2409 85.4564 41.491 85.2147C40.2526 84.8118 39.1553 84.2532 38.1784 83.5383C37.8811 83.3872 37.5795 83.2463 37.2774 83.0952C35.6157 82.8133 33.9903 82.3652 32.4546 81.6153C31.9052 81.3435 31.3521 80.9105 30.7985 80.4523C24.2441 82.3401 17.4881 83.3571 10.6963 83.4778V81.575C12.1418 80.8804 12.1418 78.5342 10.6963 77.8396V72.0302C10.6963 72.0302 13.7933 73.0824 18.7864 73.1527C20.1211 73.173 21.596 73.1226 23.1869 72.9565C23.7603 72.9012 24.3498 72.8256 24.9534 72.735C25.9553 72.5889 26.9969 72.3926 28.0749 72.1409C28.2963 72.151 28.5228 72.1712 28.7446 72.1964C28.83 72.2719 28.9451 72.3776 29.0966 72.5035C29.1018 72.5134 29.1066 72.5186 29.117 72.5235C29.4997 72.8407 30.0934 73.2989 30.9391 73.8425C32.0114 74.5371 33.4919 75.373 35.4595 76.2538C36.2656 76.6164 37.1566 76.9837 38.1326 77.3562C38.4153 77.4671 38.707 77.5779 39.0137 77.6836C39.8949 78.0008 40.8412 78.3178 41.8633 78.635C42.4023 78.8011 42.9658 78.9672 43.5496 79.1284C44.2902 79.3397 45.0651 79.5412 45.8754 79.7476C47.7632 80.2158 49.837 80.6587 52.1132 81.0616C53.0745 81.2376 54.0713 81.3988 55.1035 81.5548C55.4659 81.6052 55.8232 81.6605 56.1908 81.7108C56.6439 81.7762 57.1064 81.8367 57.575 81.8972H57.5854C58.0833 81.9626 58.5921 82.0231 59.1108 82.0836C59.3718 82.1137 59.6393 82.1438 59.9107 82.1742C60.6913 82.2596 61.4917 82.3452 62.3125 82.4208C64.2758 82.602 66.3547 82.753 68.5446 82.8688C69.5918 82.9293 70.6641 82.9745 71.7561 83.0098C72.2498 83.0298 72.7478 83.0451 73.2509 83.0601C74.2184 83.0853 75.2047 83.1053 76.2062 83.1154H76.3525C77.1477 83.1256 77.9533 83.1305 78.774 83.1305C79.9213 83.1305 81.0946 83.1204 82.2981 83.1004H82.3028C83.3251 83.0801 84.3671 83.0601 85.4285 83.0298C85.4644 83.0298 85.4946 83.0248 85.53 83.0248Z" fill="#2D1E1E"/>
<path opacity="0.21" fill-rule="evenodd" clip-rule="evenodd" d="M67.5827 1.99998L27.4807 69.8603C26.3433 70.6963 25.0898 71.2198 23.7103 71.5168C22.6984 71.7382 21.6158 71.8338 20.4581 71.8389H20.2311C18.0167 71.854 15.7962 71.8288 13.5766 71.7987C11.3212 71.6074 10.138 71.2852 10.138 71.2852L14.1505 65.2392C15.3988 65.2493 16.6523 65.2643 17.9011 65.2693C18.4297 65.2743 18.953 65.2794 19.4812 65.2843C19.5973 65.2843 19.7181 65.2895 19.8342 65.2895C20.7252 65.3147 21.5856 65.37 22.3813 65.1889C22.5073 65.1637 22.6276 65.1283 22.7485 65.0881C22.9906 65.0076 23.227 64.9017 23.4536 64.7558C23.5946 64.6702 23.7306 64.5695 23.8613 64.4537C23.9113 64.4085 23.9671 64.3581 24.0175 64.3078C25.0643 63.2707 25.7241 61.8259 26.4438 60.5573C29.4893 55.1859 32.54 49.8194 35.6063 44.4582C36.175 43.4662 36.7436 42.4746 37.3128 41.4828C37.7102 40.7881 38.1133 40.0934 38.5102 39.3988C38.9788 38.5832 39.4522 37.7626 39.9256 36.947C39.9709 36.8616 40.0162 36.7759 40.0714 36.6954C40.7911 35.4367 41.516 34.1782 42.2461 32.9197C42.4576 32.5473 42.6685 32.1796 42.8851 31.8123C45.891 26.6068 48.9162 21.4065 51.9513 16.2163H51.9569C51.9872 16.1561 52.0226 16.0956 52.0627 16.0351C52.0627 16.0351 52.0627 16.0302 52.0679 16.0302C52.1481 15.869 52.2439 15.7179 52.3397 15.557C52.3444 15.5518 52.3444 15.5468 52.3444 15.5419C52.4756 15.3153 52.6111 15.0837 52.7527 14.8571C53.336 13.8554 53.9203 12.8484 54.5197 11.8467C54.5197 11.8418 54.5243 11.8418 54.5243 11.8366C54.6197 11.6554 54.7259 11.4793 54.8368 11.2979C54.8368 11.293 54.8368 11.293 54.841 11.293C56.3419 8.72562 57.8521 6.15806 59.377 3.59072C59.5586 3.64109 59.7602 3.67124 59.9815 3.67124C60.9934 3.67124 61.6178 3.06717 61.8542 2.32709C62.1209 2.46309 62.4333 2.53865 62.8 2.53865C63.3743 2.53865 63.8227 2.34731 64.1498 2.04517L65.3278 2.03013L67.5827 1.99998Z" fill="#2D1E1E"/>
</g>
<defs>
<clipPath id="clip0_0_1471">
<rect width="104" height="122" fill="white"/>
</clipPath>
<clipPath id="clip1_0_1471">
<rect width="7" height="8" fill="white" transform="translate(34 40)"/>
</clipPath>
<clipPath id="clip2_0_1471">
<rect width="9" height="10" fill="white" transform="translate(60 15)"/>
</clipPath>
<clipPath id="clip3_0_1471">
<rect width="8" height="9" fill="white" transform="translate(65 26)"/>
</clipPath>
<clipPath id="clip4_0_1471">
<rect width="5" height="5" fill="white" transform="translate(21 63)"/>
</clipPath>
<clipPath id="clip5_0_1471">
<rect width="5" height="5" fill="white" transform="translate(49 13)"/>
</clipPath>
<clipPath id="clip6_0_1471">
<rect width="6" height="6" fill="white" transform="translate(59 24)"/>
</clipPath>
<clipPath id="clip7_0_1471">
<rect width="8" height="9" fill="white" transform="translate(54 29)"/>
</clipPath>
<clipPath id="clip8_0_1471">
<rect width="7" height="8" fill="white" transform="translate(31 36)"/>
</clipPath>
<clipPath id="clip9_0_1471">
<rect width="7" height="8" fill="white" transform="translate(15 63)"/>
</clipPath>
<clipPath id="clip10_0_1471">
<rect width="9" height="10" fill="white" transform="translate(37 30)"/>
</clipPath>
<clipPath id="clip11_0_1471">
<rect width="7" height="8" fill="white" transform="translate(63 37)"/>
</clipPath>
<clipPath id="clip12_0_1471">
<rect width="6" height="7" fill="white" transform="translate(66 7)"/>
</clipPath>
<clipPath id="clip13_0_1471">
<rect width="6" height="7" fill="white" transform="translate(53 9)"/>
</clipPath>
</defs>
</svg>
