<svg width="23" height="25" viewBox="0 0 23 25" fill="none" xmlns="http://www.w3.org/2000/svg">
<g clip-path="url(#clip0_0_3903)">
<g clip-path="url(#clip1_0_3903)">
<path fill-rule="evenodd" clip-rule="evenodd" d="M37.7432 12.0627H37.5414C37.5517 11.8961 37.5591 11.7286 37.5591 11.5585C37.5591 9.85661 37.0434 8.09269 36.1451 6.71861C35.1417 5.18406 33.8136 4.33911 32.4058 4.33911C31.7627 4.33911 31.1373 4.51549 30.5505 4.85326C29.5586 3.06266 28.0666 1.98334 26.5161 1.98334C24.9658 1.98334 23.4741 3.06266 22.4822 4.85326C21.8959 4.51549 21.2696 4.33911 20.6269 4.33911C19.9839 4.33911 19.358 4.51549 18.7721 4.85326C17.7797 3.06266 16.2877 1.98334 14.7373 1.98334C13.1869 1.98334 11.6953 3.06266 10.7029 4.85326C10.117 4.51549 9.49114 4.33911 8.84851 4.33911C7.43987 4.33911 6.1118 5.18406 5.10877 6.71861C4.21009 8.09269 3.69522 9.85661 3.69522 11.5585C3.69522 11.7286 3.70219 11.8961 3.71248 12.0627H3.51072C2.55697 12.0627 1.78076 12.8388 1.78076 13.7926V14.7866C1.78076 15.193 2.11032 15.5226 2.51712 15.5226H2.65394L2.89555 17.695C2.89555 17.6961 2.89555 17.6969 2.89555 17.6976L3.31756 21.4934C3.45442 22.7259 4.38143 23.6207 5.52172 23.6207H13.2654C13.6718 23.6207 14.0009 23.2909 14.0009 22.8847C14.0009 22.4786 14.3313 22.1483 14.7373 22.1483C15.1433 22.1483 15.4737 22.4786 15.4737 22.8847C15.4737 23.2909 15.8036 23.6207 16.21 23.6207H25.0439C25.4507 23.6207 25.7802 23.2909 25.7802 22.8847C25.7802 22.4786 26.1102 22.1483 26.5161 22.1483C26.9221 22.1483 27.2525 22.4786 27.2525 22.8847C27.2525 23.2909 27.5821 23.6207 27.9889 23.6207H35.7326C36.8725 23.6207 37.7991 22.7263 37.9363 21.4934L38.0978 20.0398C38.0978 20.0384 38.0978 20.0371 38.0982 20.0357L38.5999 15.5226H38.7368C39.1432 15.5226 39.4731 15.193 39.4731 14.7866V13.7926C39.4731 12.8388 38.6969 12.0627 37.7432 12.0627ZM30.7091 6.55341C30.7379 6.53231 30.765 6.50914 30.7901 6.48421C31.2902 6.05984 31.8433 5.81129 32.4058 5.81129C34.2977 5.81129 36.0864 8.60419 36.0864 11.5585C36.0864 11.7293 36.0802 11.8975 36.0675 12.0627H28.7437C28.731 11.8978 28.7248 11.7293 28.7248 11.5585C28.7248 9.53016 29.5684 7.57801 30.7091 6.55341ZM26.5161 3.45569C27.5825 3.45569 28.6537 4.34051 29.3843 5.79579C29.1308 6.06766 28.89 6.37599 28.6665 6.71861C27.7678 8.09269 27.2525 9.85661 27.2525 11.5581C27.2525 11.7284 27.2595 11.8961 27.2698 12.0625H25.7626C25.7728 11.8961 25.7802 11.7284 25.7802 11.5581C25.7802 9.85661 25.2645 8.09269 24.3667 6.71861C24.1423 6.37599 23.9015 6.06801 23.6484 5.79579C24.3794 4.34051 25.4507 3.45569 26.5161 3.45569ZM18.9303 6.55341C18.959 6.53231 18.9862 6.50949 19.0112 6.48474C19.5113 6.06001 20.0644 5.81146 20.6269 5.81146C21.1891 5.81129 21.7409 6.05896 22.2406 6.48264C22.2665 6.50844 22.2948 6.53231 22.3244 6.55444C23.4651 7.57924 24.3079 9.53069 24.3079 11.5585C24.3079 11.7293 24.3013 11.8978 24.2886 12.0627H16.9653C16.9525 11.8978 16.946 11.7293 16.946 11.5585C16.946 9.53016 17.7896 7.57801 18.9303 6.55341ZM14.7373 3.45569C15.8036 3.45569 16.8749 4.34051 17.6059 5.79579C17.3519 6.06766 17.1116 6.37599 16.8876 6.71861C15.9889 8.09269 15.4737 9.85661 15.4737 11.5581C15.4737 11.7284 15.4806 11.8961 15.4909 12.0625H13.9837C13.994 11.8961 14.0009 11.7284 14.0009 11.5581C14.0009 9.85661 13.4861 8.09269 12.5878 6.71861C12.3634 6.37599 12.1231 6.06766 11.8691 5.79579C12.6005 4.34051 13.6718 3.45569 14.7373 3.45569ZM8.84851 5.81129C9.40939 5.81129 9.96165 6.05879 10.4609 6.48194C10.4868 6.50826 10.5156 6.53231 10.546 6.55461C11.6863 7.57941 12.529 9.53069 12.529 11.5585C12.529 11.7293 12.5225 11.8975 12.5097 12.0627H5.18643C5.17368 11.8975 5.16712 11.7293 5.16712 11.5585C5.16712 8.60419 6.95623 5.81129 8.84851 5.81129ZM36.7073 19.2259H34.3449C33.9385 19.2259 33.6085 19.5555 33.6085 19.9619C33.6085 20.3685 33.9385 20.6983 34.3449 20.6983H36.5433L36.473 21.3308C36.429 21.7245 36.1788 22.1483 35.7326 22.1483H28.5991C28.295 21.2912 27.4761 20.6758 26.5161 20.6758C25.5567 20.6758 24.7381 21.2912 24.434 22.1483H16.8202C16.5162 21.2912 15.6972 20.6758 14.7373 20.6758C13.7778 20.6758 12.9589 21.2912 12.6552 22.1483H5.52172C5.07507 22.1483 4.8244 21.7245 4.78044 21.3308L4.45007 18.3571H6.64845C7.05525 18.3571 7.38481 18.0274 7.38481 17.621C7.38481 17.2144 7.05525 16.8846 6.64845 16.8846H4.28693L4.13531 15.5226H37.1182L36.7073 19.2259ZM38.0008 14.0502H37.9408H3.31305H3.25307V13.7926C3.25307 13.653 3.37099 13.5352 3.51072 13.5352H37.7432C37.8829 13.5352 38.0008 13.653 38.0008 13.7926V14.0502Z" fill="#7897E1"/>
</g>
<g clip-path="url(#clip2_0_3903)">
<g clip-path="url(#clip3_0_3903)">
<path fill-rule="evenodd" clip-rule="evenodd" d="M8.78154 16.8849H8.76387C8.35748 16.8849 8.02751 17.2145 8.02751 17.6209C8.02751 18.0275 8.35748 18.3573 8.76387 18.3573H8.78154C9.18752 18.3573 9.51749 18.0275 9.51749 17.6209C9.51749 17.2145 9.18752 16.8849 8.78154 16.8849Z" fill="#7897E1"/>
</g>
</g>
</g>
<defs>
<clipPath id="clip0_0_3903">
<rect width="41" height="25" fill="white"/>
</clipPath>
<clipPath id="clip1_0_3903">
<rect width="41" height="25" fill="white"/>
</clipPath>
<clipPath id="clip2_0_3903">
<rect width="4" height="5" fill="white" transform="translate(7 15)"/>
</clipPath>
<clipPath id="clip3_0_3903">
<rect width="4" height="5" fill="white" transform="translate(7 15)"/>
</clipPath>
</defs>
</svg>
