<svg width="36" height="39" viewBox="0 0 36 39" fill="none" xmlns="http://www.w3.org/2000/svg">
<path fill-rule="evenodd" clip-rule="evenodd" d="M31.6874 14.5322C33.2242 14.3873 34.4307 13.0903 34.4307 11.5158C34.4307 9.84532 33.0718 8.4859 31.4018 8.4859H31.2946C31.1705 7.77832 30.8553 7.1528 30.377 6.68242C29.7393 6.05589 28.8353 5.7357 27.7603 5.75403L27.5261 5.7582C24.3132 5.81639 23.645 5.82859 18.3479 3.11205C15.0035 1.39656 11.1421 1.42078 8.26983 3.17566C6.25142 4.40853 5.01209 6.31711 4.79389 8.48555H4.59337C2.92383 8.48555 1.56494 9.84497 1.56494 11.5158C1.56494 13.0903 2.77137 14.3873 4.30739 14.5322L3.65895 29.3043C2.03625 32.1589 1.63766 34.3408 2.47387 35.7913C2.9004 36.5306 3.85415 37.4122 5.97649 37.4122H30.0207C32.1431 37.4122 33.0968 36.5306 33.523 35.7913C34.3592 34.3408 33.9594 32.1585 32.3358 29.3041L31.6874 14.5322ZM2.95299 11.5158C2.95299 10.6106 3.68855 9.87391 4.59337 9.87391H15.2245C15.6079 9.87391 15.9186 9.56316 15.9186 9.17975C15.9186 8.79665 15.6079 8.4859 15.2245 8.4859H6.1918C6.40755 6.81034 7.40155 5.33275 8.99343 4.36024C11.456 2.85586 14.7976 2.85094 17.7139 4.34737C23.3224 7.22288 24.2178 7.2065 27.5507 7.14621L27.7854 7.14165C28.4872 7.12948 29.0333 7.3081 29.404 7.67236C29.6177 7.88218 29.7767 8.16368 29.8695 8.48555H20.7703C20.3873 8.48555 20.0766 8.79665 20.0766 9.17975C20.0766 9.56281 20.3873 9.87375 20.7703 9.87375H31.4018C32.3062 9.87375 33.0422 10.6106 33.0422 11.5158C33.0422 12.4211 32.3062 13.1576 31.4018 13.1576H4.59294C3.68855 13.1579 2.95299 12.4212 2.95299 11.5158ZM32.3202 35.0979C31.8793 35.8633 30.8261 36.024 30.0207 36.024H5.97649C5.1711 36.024 4.11795 35.8633 3.6762 35.0979C3.10751 34.1116 3.55826 32.2481 4.94592 29.8507C5.00222 29.754 5.03387 29.645 5.0384 29.5335L5.69627 14.546H30.299L30.9564 29.5335C30.9617 29.6452 30.9934 29.7541 31.0493 29.8507C32.4374 32.2483 32.8889 34.1119 32.3202 35.0979Z" fill="#4D8CBE"/>
<path fill-rule="evenodd" clip-rule="evenodd" d="M22.4955 20.7006C22.0066 20.211 21.2538 20.0958 20.3658 20.3682C20.376 20.229 20.3822 20.088 20.3822 19.9461C20.3822 17.8958 19.3278 16.2895 17.9821 16.2895C16.6375 16.2895 15.5836 17.8958 15.5836 19.9461C15.5836 20.088 15.5901 20.229 15.6 20.3682C14.7124 20.0958 13.9592 20.211 13.4706 20.7006C12.7626 21.409 12.8551 22.6541 13.6559 23.9599C13.591 24.0074 13.5286 24.0597 13.4706 24.1181C12.5181 25.0709 13.0523 27.0421 14.7128 28.7042C15.4845 29.4742 16.3573 30.0335 17.1771 30.2832C17.2132 30.2977 17.2502 30.3111 17.2876 30.3237V32.1582C17.2876 32.5416 17.5987 32.8522 17.9821 32.8522C18.365 32.8522 18.6761 32.5416 18.6761 32.1582V30.3238C18.7139 30.3115 18.7513 30.2981 18.7879 30.2829C19.6085 30.0333 20.4816 29.4742 21.2538 28.7037C22.9139 27.0421 23.448 25.0709 22.4955 24.1181C22.4376 24.0597 22.3751 24.0074 22.3102 23.9599C23.1111 22.654 23.204 21.409 22.4955 20.7006ZM21.5139 21.6816C21.6881 21.8559 21.5841 22.674 20.8223 23.6775C20.6337 23.7082 20.4381 23.7572 20.2355 23.8271C19.7215 24.0041 19.1873 24.3023 18.6761 24.6919V23.1549C18.7443 23.0801 18.8162 23.0036 18.8939 22.925C19.1737 22.6454 19.4749 22.3972 19.7769 22.1937C19.7773 22.1933 19.7778 22.1932 19.7782 22.1926C20.0872 21.9844 20.3978 21.8228 20.6879 21.7226C21.1309 21.5696 21.4263 21.5943 21.5139 21.6816ZM17.9821 17.6776C18.3852 17.6776 18.9941 18.5825 18.9941 19.9461C18.9941 20.3836 18.9309 20.8034 18.8117 21.1739C18.5273 21.3801 18.2492 21.6147 17.9829 21.8734C17.7178 21.6147 17.4388 21.3801 17.1541 21.1738C17.0349 20.8031 16.972 20.3834 16.972 19.9461C16.972 18.5825 17.5798 17.6776 17.9821 17.6776ZM14.4523 21.6816C14.5394 21.5943 14.8353 21.5696 15.2782 21.7226C15.5651 21.8216 15.8712 21.9807 16.1773 22.185C16.1802 22.1871 16.1835 22.1893 16.1864 22.1916C16.4892 22.3951 16.79 22.6428 17.0686 22.9213C17.1442 22.998 17.2178 23.0759 17.2876 23.1542V24.6903C16.7777 24.3015 16.2439 24.004 15.7307 23.8271C15.5281 23.7572 15.3325 23.7082 15.1443 23.6775C14.382 22.674 14.2777 21.8559 14.4523 21.6816ZM15.6941 27.7225C14.4396 26.4668 14.2522 25.2994 14.4523 25.0992C14.5398 25.0113 14.8353 24.9866 15.2782 25.1391C15.8527 25.3372 16.5061 25.7757 17.0719 26.3418C17.1454 26.4155 17.2178 26.4922 17.2876 26.5703V28.847C16.7662 28.6249 16.2011 28.2286 15.6941 27.7225ZM20.2729 27.7218C19.765 28.2288 19.1988 28.6256 18.6761 28.8475V26.5708C18.7451 26.4948 18.8179 26.4185 18.8943 26.3418C19.4601 25.7757 20.1139 25.3372 20.6879 25.1391C21.1309 24.9866 21.4263 25.0113 21.5139 25.0992C21.714 25.2994 21.5266 26.4668 20.2729 27.7218Z" fill="#4D8CBE"/>
<path fill-rule="evenodd" clip-rule="evenodd" d="M17.9979 9.8739H18.0115C18.3948 9.8739 18.7051 9.56316 18.7051 9.17973C18.7051 8.79666 18.3948 8.48591 18.0115 8.48591H17.9979C17.6141 8.48591 17.3034 8.79666 17.3034 9.17973C17.3034 9.56316 17.6141 9.8739 17.9979 9.8739Z" fill="#4D8CBE"/>
</svg>
