<svg width="41" height="38" viewBox="0 0 41 38" fill="none" xmlns="http://www.w3.org/2000/svg">
<g clip-path="url(#clip0_0_3800)">
<path fill-rule="evenodd" clip-rule="evenodd" d="M38.6096 15.9762C38.5788 15.8084 38.4909 15.6566 38.3606 15.5464C37.1419 14.515 36.936 13.378 36.7704 12.4642L36.7486 12.3452C36.6915 12.0334 36.4412 11.7931 36.1277 11.749C36.0188 11.7336 35.9042 11.7258 35.7862 11.7258C35.086 11.7258 34.0986 12.0212 33.4728 12.6805C33.366 12.7929 33.2977 12.9364 33.2768 13.0903C33.2246 13.4857 33.1971 13.8479 33.1736 14.1673C33.0836 15.371 33.0035 15.4987 32.637 15.6148C32.4073 15.6875 32.2273 15.868 32.1562 16.098C31.8106 17.21 31.3525 18.2738 30.7977 19.2777C30.5236 18.7545 30.2212 18.2841 29.9393 17.8465C29.2502 16.776 28.7062 15.9302 28.8919 14.8822C29.4947 11.4851 29.189 8.92627 27.9826 7.27616C27.3111 6.35751 26.3541 5.73112 25.1912 5.43833C25.4226 3.63257 26.6775 2.81363 27.3723 2.62747C27.7652 2.52221 27.9982 2.11838 27.893 1.72573C27.7878 1.33326 27.3839 1.09971 26.991 1.20516C25.5569 1.58961 24.0251 3.00063 23.7321 5.25429C22.5573 5.25099 21.4901 5.60982 20.6116 6.3113C19.0069 7.59334 18.0376 9.97598 17.7307 13.3923C17.6378 14.4204 16.9725 15.0203 16.0521 15.8502C15.3009 16.5277 14.4635 17.2843 13.7928 18.4279C12.9583 18.0879 12.0617 17.8672 11.1265 17.7874C11.3919 16.0536 12.6111 15.2617 13.2924 15.0794C13.6852 14.9741 13.9182 14.5703 13.813 14.1778C13.7074 13.7851 13.3039 13.5516 12.9115 13.657C12.5412 13.7564 12.1652 13.9244 11.8053 14.1569C11.6376 13.3302 11.2324 12.555 10.619 11.9416C9.79715 11.1196 8.70409 10.6669 7.54162 10.6669C7.16069 10.6669 6.78185 10.7165 6.4149 10.8145C6.16012 10.8824 5.96164 11.0813 5.89346 11.3357C5.49363 12.8335 5.92548 14.4444 7.02059 15.5398C7.78282 16.3018 8.77806 16.7457 9.8452 16.8065C9.75234 17.1114 9.6833 17.4353 9.64262 17.7792C4.89823 18.1356 1.14697 22.11 1.14697 26.9439C1.14697 32.0118 5.2701 36.1346 10.3375 36.1346C12.2211 36.1346 14.0152 35.575 15.5512 34.5129C15.7928 34.6191 16.0356 34.7212 16.2793 34.8174C18.495 35.6914 20.734 36.1346 22.9345 36.1346C26.4737 36.1346 29.7585 34.9782 32.434 32.7905C35.2299 30.5037 37.291 27.1199 38.3935 23.0051C38.753 21.6631 39.0707 18.5009 38.6096 15.9762ZM17.0383 16.9439C18.0281 16.0508 19.0526 15.1273 19.1968 13.5244C19.4668 10.5234 20.252 8.48361 21.5312 7.46175C22.2902 6.85527 23.2287 6.62153 24.3205 6.76742C25.3983 6.91121 26.2308 7.37481 26.7938 8.14514C27.7541 9.45854 27.9723 11.6385 27.4422 14.625C27.1554 16.2417 27.941 17.4627 28.7013 18.6435C29.127 19.3052 29.5654 19.9877 29.8637 20.7819C27.3826 24.3649 23.6178 26.9776 19.4754 27.9344C19.5107 27.6059 19.5284 27.2751 19.5284 26.9439C19.5284 23.6231 17.7578 20.7082 15.1111 19.0928C15.6617 18.1863 16.3594 17.556 17.0383 16.9439ZM8.06142 14.4987C7.44301 13.8801 7.14429 13.0127 7.23465 12.1552C7.33617 12.1448 7.43846 12.139 7.54121 12.139C8.31045 12.139 9.03365 12.4386 9.57772 12.9824C10.1961 13.6011 10.4949 14.4685 10.4049 15.3258C10.303 15.3366 10.2006 15.342 10.0979 15.342C9.32869 15.3422 8.60549 15.0426 8.06142 14.4987ZM10.3375 34.6625C6.08165 34.6625 2.61928 31.1999 2.61928 26.9439C2.61928 22.6879 6.08165 19.2258 10.3375 19.2258C14.5933 19.2258 18.0561 22.6879 18.0561 26.9439C18.0561 27.3681 18.0212 27.7918 17.9525 28.2085C17.4796 28.2697 17.0021 28.3086 16.5234 28.3248C16.6241 27.8734 16.6771 27.4121 16.6771 26.9439C16.6771 26.1148 16.5176 25.3053 16.2029 24.5385C16.0484 24.1625 15.619 23.9825 15.2422 24.1367C14.8662 24.2912 14.6862 24.7211 14.8407 25.0972C15.0823 25.6861 15.2048 26.3074 15.2048 26.9439C15.2048 27.4068 15.139 27.8617 15.0108 28.3019C13.9572 28.2341 12.902 28.06 11.8624 27.7814C11.6508 27.7247 11.4244 27.7652 11.246 27.8922C10.5914 28.3568 9.93192 28.9411 9.54074 30.0613C9.44004 30.3501 9.5284 30.6712 9.76263 30.8679C11.1145 32.0037 12.5277 32.9667 13.9831 33.7485C12.8687 34.3486 11.6286 34.6625 10.3375 34.6625ZM36.9713 22.6241C34.9513 30.1621 29.7043 34.6625 22.9345 34.6625C18.9827 34.6625 14.8111 33.0419 11.1347 30.0892C11.329 29.7394 11.5702 29.4986 11.8291 29.2931C13.2114 29.6342 14.6172 29.8069 16.013 29.8069C19.9644 29.8069 23.774 28.4606 27.0301 25.9132C28.6856 24.6183 30.1206 23.0576 31.2703 21.3273C31.2839 21.309 31.2966 21.2896 31.3085 21.2699C32.2162 19.8935 32.9427 18.4103 33.4555 16.868C34.4869 16.3488 34.5654 15.2972 34.6418 14.2771C34.6591 14.044 34.6772 13.8048 34.7047 13.5527C34.9003 13.411 35.16 13.2987 35.4201 13.2409C35.6165 14.1769 35.9979 15.3784 37.2031 16.4879C37.5442 18.6569 37.2963 21.4097 36.9713 22.6241Z" fill="#369E1A"/>
</g>
<defs>
<clipPath id="clip0_0_3800">
<rect width="41" height="38" fill="white"/>
</clipPath>
</defs>
</svg>
