<svg width="41" height="32" viewBox="0 0 41 32" fill="none" xmlns="http://www.w3.org/2000/svg">
<g clip-path="url(#clip0_0_3880)">
<g clip-path="url(#clip1_0_3880)">
<path fill-rule="evenodd" clip-rule="evenodd" d="M36.0634 6.307C34.3446 4.93712 31.9185 3.81561 28.8527 2.97398C22.9569 1.35472 16.3079 1.1799 13.7228 1.1799C7.02491 1.1799 1.57617 6.62909 1.57617 13.327V18.4736C1.57617 25.1715 7.02491 30.6207 13.7228 30.6207C16.8116 30.6207 19.1309 29.6532 21.5861 28.6289C24.1259 27.5695 26.7517 26.4743 30.4446 26.4743C35.3102 26.4743 39.2677 22.5163 39.2677 17.651V12.5045C39.2677 10.0869 38.1899 8.00173 36.0634 6.307ZM35.4433 18.8924C35.722 19.1883 36.1879 19.2023 36.4838 18.9236C36.983 18.4534 37.4227 17.9298 37.7958 17.3659V17.651C37.7958 21.7043 34.4982 25.0019 30.4446 25.0019C26.4575 25.0019 23.6933 26.155 21.0194 27.2699C18.7039 28.2359 16.5166 29.1483 13.7228 29.1483C8.06782 29.1483 3.42613 24.7273 3.07066 19.1599C5.13801 22.9197 9.13784 25.4739 13.7228 25.4739C16.8116 25.4739 19.1309 24.5063 21.5861 23.482C24.1259 22.4229 26.7517 21.3273 30.4446 21.3273C30.7195 21.3273 30.9964 21.3144 31.2689 21.289C31.6736 21.2512 31.9711 20.8923 31.9333 20.4876C31.8951 20.0827 31.5359 19.7854 31.1316 19.8232C30.9044 19.8443 30.6739 19.8553 30.4446 19.8553C26.4575 19.8553 23.6933 21.0084 21.0194 22.1233C18.7039 23.0891 16.5166 24.0015 13.7228 24.0015C7.83687 24.0015 3.04807 19.2131 3.04807 13.327C3.04807 7.44089 7.83687 2.65225 13.7228 2.65225C16.2479 2.65225 22.7395 2.82217 28.4632 4.39353C34.6556 6.0942 37.7958 8.82333 37.7958 12.5045C37.7958 14.514 36.9497 16.4629 35.475 17.8516C35.1787 18.1304 35.1647 18.5963 35.4433 18.8924Z" fill="#CF5C9A"/>
</g>
<g clip-path="url(#clip2_0_3880)">
<g clip-path="url(#clip3_0_3880)">
<path fill-rule="evenodd" clip-rule="evenodd" d="M34.8379 19.3623C34.6649 18.9942 34.2261 18.8363 33.8583 19.0095C33.853 19.0118 33.846 19.0154 33.8406 19.0181C33.4774 19.1998 33.3295 19.642 33.5115 20.0055C33.6405 20.2635 33.9006 20.4127 34.1706 20.4127C34.2795 20.4127 34.3904 20.3885 34.4948 20.3369C34.856 20.1608 35.0093 19.7267 34.8379 19.3623Z" fill="#CF5C9A"/>
</g>
</g>
<g clip-path="url(#clip4_0_3880)">
<g clip-path="url(#clip5_0_3880)">
<path fill-rule="evenodd" clip-rule="evenodd" d="M19.037 4.33219L18.9988 4.32905C18.5928 4.29733 18.239 4.59902 18.2066 5.0044C18.1745 5.40979 18.4765 5.76463 18.8817 5.79687L18.9195 5.79983C18.9392 5.80158 18.9594 5.80227 18.9791 5.80227C19.3592 5.80227 19.6813 5.51 19.7122 5.12466C19.7446 4.71927 19.4422 4.3646 19.037 4.33219Z" fill="#CF5C9A"/>
</g>
</g>
<g clip-path="url(#clip6_0_3880)">
<g clip-path="url(#clip7_0_3880)">
<path fill-rule="evenodd" clip-rule="evenodd" d="M35.8636 10.5214C35.1334 9.07811 33.5086 7.83095 31.0345 6.81434C29.0321 5.99189 26.8428 5.47235 25.3585 5.18095C24.4693 5.00668 23.5374 4.85086 22.5882 4.71805C22.1855 4.66142 21.8132 4.94252 21.7569 5.34547C21.701 5.74808 21.9817 6.12016 22.3843 6.17629C23.3064 6.30525 24.2121 6.45671 25.0754 6.62578C30.1321 7.61761 33.5855 9.27976 34.5495 11.1859C34.7525 11.5864 34.8507 12.0178 34.8507 12.5044C34.8507 14.934 32.8742 16.9104 30.4444 16.9104C27.988 16.9104 25.603 17.312 23.1519 18.1379C22.0967 18.4936 21.0719 18.9189 20.0808 19.3302C19.4249 19.6023 18.7473 19.8837 18.0743 20.1385C16.3764 20.7821 15.0746 21.0568 13.7227 21.0568C9.46027 21.0568 5.99296 17.5891 5.99296 13.3268C5.99296 9.0647 9.46027 5.5968 13.7227 5.5968C14.554 5.5968 15.3984 5.61248 16.2313 5.64367C16.3731 5.64909 16.5144 5.65465 16.6562 5.66076C17.0622 5.67941 17.4061 5.36412 17.4242 4.95787C17.4419 4.5518 17.1271 4.20792 16.7211 4.1898C16.5761 4.18352 16.431 4.17776 16.286 4.17237C15.4354 4.14066 14.5724 4.12461 13.7227 4.12461C8.64872 4.12461 4.52026 8.25254 4.52026 13.3268C4.52026 18.4009 8.64872 22.5292 13.7227 22.5292C15.264 22.5292 16.7211 22.2259 18.5957 21.5154C19.2906 21.2524 19.9793 20.9664 20.6449 20.6901C21.6135 20.2882 22.6145 19.8726 23.6224 19.5331C25.919 18.7589 28.1511 18.3828 30.4444 18.3828C33.6861 18.3828 36.3234 15.7459 36.3234 12.5045C36.3234 11.7814 36.1726 11.1326 35.8636 10.5214Z" fill="#CF5C9A"/>
</g>
</g>
<g clip-path="url(#clip8_0_3880)">
<path fill-rule="evenodd" clip-rule="evenodd" d="M14.4272 7.05295C12.3698 7.05295 10.6953 8.57131 10.6953 10.4375C10.6953 12.3041 12.3698 13.8223 14.4272 13.8223C16.4855 13.8223 18.16 12.3041 18.16 10.4375C18.16 8.57131 16.4855 7.05295 14.4272 7.05295ZM14.4272 12.35C13.1813 12.35 12.1672 11.492 12.1672 10.4375C12.1672 9.38312 13.1813 8.52512 14.4272 8.52512C15.6739 8.52512 16.6877 9.38312 16.6877 10.4375C16.6877 11.492 15.6739 12.35 14.4272 12.35Z" fill="#CF5C9A"/>
</g>
</g>
<defs>
<clipPath id="clip0_0_3880">
<rect width="41" height="32" fill="white"/>
</clipPath>
<clipPath id="clip1_0_3880">
<rect width="41" height="32" fill="white"/>
</clipPath>
<clipPath id="clip2_0_3880">
<rect width="5" height="5" fill="white" transform="translate(32 17)"/>
</clipPath>
<clipPath id="clip3_0_3880">
<rect width="5" height="5" fill="white" transform="translate(32 17)"/>
</clipPath>
<clipPath id="clip4_0_3880">
<rect width="4" height="4" fill="white" transform="translate(17 3)"/>
</clipPath>
<clipPath id="clip5_0_3880">
<rect width="4" height="4" fill="white" transform="translate(17 3)"/>
</clipPath>
<clipPath id="clip6_0_3880">
<rect width="35" height="21" fill="white" transform="translate(3 3)"/>
</clipPath>
<clipPath id="clip7_0_3880">
<rect width="35" height="21" fill="white" transform="translate(3 3)"/>
</clipPath>
<clipPath id="clip8_0_3880">
<rect width="11" height="9" fill="white" transform="translate(9 6)"/>
</clipPath>
</defs>
</svg>
