<svg width="27" height="27" viewBox="0 0 27 27" fill="none" xmlns="http://www.w3.org/2000/svg">
<g clip-path="url(#clip0_0_3754)">
<g clip-path="url(#clip1_0_3754)">
<path fill-rule="evenodd" clip-rule="evenodd" d="M1.99965 1.99994H25.9999V25.9999H1.99965V1.99994Z" fill="black" fill-opacity="0.01"/>
<path fill-rule="evenodd" clip-rule="evenodd" d="M21.9987 20.2306H21.9999V20.2295V19.307L20.1241 17.4612V12.846C20.1241 11.4244 19.7436 10.1294 19.0237 9.10151C18.2779 8.03681 17.1996 7.31386 15.9061 7.01218V6.38407C15.9061 5.6207 15.2749 4.99973 14.4991 4.99973C13.7241 4.99973 13.0934 5.6207 13.0934 6.38407V7.01218C11.8015 7.31439 10.7244 8.03576 9.97824 9.09819C9.25584 10.1266 8.87411 11.4228 8.87411 12.846V17.4612L6.99951 19.307V20.2306H21.9987ZM12.6245 21.1539C12.6245 22.1716 13.4657 22.9998 14.4991 22.9998C15.5326 22.9998 16.3745 22.1721 16.3745 21.1539H12.6245ZM14.4991 8.69264C12.2913 8.69264 10.7495 10.4006 10.7495 12.846V18.3847H18.2491V12.846C18.2491 10.4006 16.7074 8.69264 14.4991 8.69264Z" fill="#1D1D1D"/>
</g>
</g>
<defs>
<clipPath id="clip0_0_3754">
<rect width="27" height="27" fill="white"/>
</clipPath>
<clipPath id="clip1_0_3754">
<rect width="27" height="27" fill="white"/>
</clipPath>
</defs>
</svg>
