<svg width="12" height="11" viewBox="0 0 12 11" fill="none" xmlns="http://www.w3.org/2000/svg">
<path fill-rule="evenodd" clip-rule="evenodd" d="M11.0565 1.7049L9.9466 0.595582C9.40337 0.0519866 8.52361 0.0519866 7.97996 0.595582L1.44067 7.09184L0.934011 10.1617C0.878949 10.496 1.16823 10.7851 1.50231 10.73L4.57225 10.2236L11.0692 3.68459C11.612 3.14187 11.617 2.26539 11.0565 1.7049ZM3.41347 6.41004L6.92104 2.92488L8.73933 4.74319L5.25437 8.25118V7.39911H4.2653V6.41004H3.41347ZM2.61958 9.62715L2.03732 9.0447L2.28715 7.52842L2.66685 7.15179H3.52319V8.14086H4.51266V8.99764L4.13587 9.37687L2.61958 9.62715ZM10.4278 3.04339L10.427 3.04444L10.4261 3.04548L9.43624 4.04152L7.62247 2.22793L8.61893 1.23816L8.61976 1.23729L8.62099 1.23607C8.80919 1.04784 9.11491 1.04541 9.30558 1.23607L10.415 2.34591C10.6184 2.54913 10.6201 2.85151 10.4278 3.04339Z" fill="#A2A2A2"/>
</svg>
