<svg width="13" height="13" viewBox="0 0 13 13" fill="none" xmlns="http://www.w3.org/2000/svg">
<path fill-rule="evenodd" clip-rule="evenodd" d="M12.8315 12.0683L9.70811 8.94499C10.4819 8.00142 10.9487 6.79224 10.9487 5.47447C10.9487 2.45204 8.49634 -0.00012207 5.47406 -0.00012207C2.44849 -0.00012207 -0.000976562 2.45204 -0.000976562 5.47447C-0.000976562 8.49726 2.44849 10.9494 5.47406 10.9494C6.79144 10.9494 7.9979 10.4853 8.94218 9.71115L12.0655 12.8321C12.2772 13.044 12.6194 13.044 12.8315 12.8321C13.0431 12.6224 13.0431 12.2778 12.8315 12.0683ZM5.47406 9.85998C3.05336 9.85998 1.08549 7.89267 1.08549 5.47447C1.08549 3.05663 3.05336 1.0867 5.47406 1.0867C7.89146 1.0867 9.86179 3.05663 9.86179 5.47447C9.86179 7.89267 7.89146 9.85998 5.47406 9.85998Z" fill="#9F9F9F"/>
</svg>
