<svg width="41" height="36" viewBox="0 0 41 36" fill="none" xmlns="http://www.w3.org/2000/svg">
<g clip-path="url(#clip0_0_3824)">
<g clip-path="url(#clip1_0_3824)">
<g clip-path="url(#clip2_0_3824)">
<path fill-rule="evenodd" clip-rule="evenodd" d="M16.4471 13.8589C16.1298 13.5114 15.6778 13.3079 15.2069 13.3005C14.2606 13.2885 13.477 14.0432 13.461 14.9892C13.456 15.2942 13.6989 15.5455 14.0038 15.5507C14.0071 15.5507 14.0103 15.5507 14.0132 15.5507C14.314 15.5507 14.5602 15.3095 14.5655 15.0078C14.5712 14.6699 14.8486 14.3989 15.1897 14.4046C15.3602 14.4076 15.5168 14.4782 15.6322 14.6038C15.8377 14.829 16.187 14.8447 16.4121 14.639C16.6373 14.4334 16.6529 14.0841 16.4471 13.8589Z" fill="#DF6860"/>
</g>
</g>
<g clip-path="url(#clip3_0_3824)">
<g clip-path="url(#clip4_0_3824)">
<path fill-rule="evenodd" clip-rule="evenodd" d="M19.3847 15.6584C19.2154 15.2607 18.8863 14.9467 18.4807 14.7969C17.6654 14.4963 16.7569 14.9142 16.4549 15.7287C16.3485 16.0145 16.4943 16.3322 16.7803 16.4383C16.8436 16.4619 16.9081 16.4729 16.9718 16.4729C17.1966 16.4729 17.407 16.3352 17.4896 16.1126C17.5808 15.8681 17.854 15.743 18.0985 15.8331C18.2214 15.8786 18.3171 15.97 18.3685 16.0908C18.4877 16.3713 18.8119 16.5021 19.0929 16.3828C19.3732 16.2632 19.5039 15.9392 19.3847 15.6584Z" fill="#DF6860"/>
</g>
</g>
<g clip-path="url(#clip5_0_3824)">
<g clip-path="url(#clip6_0_3824)">
<path fill-rule="evenodd" clip-rule="evenodd" d="M22.9436 10.7685C22.7275 10.553 22.3782 10.5535 22.1625 10.7692L21.6423 11.2907C21.4265 11.5068 21.4274 11.8563 21.6427 12.0715C21.7503 12.179 21.8917 12.2329 22.033 12.2329C22.1744 12.2329 22.3158 12.1788 22.4238 12.0708L22.944 11.5493C23.1598 11.3332 23.1594 10.9838 22.9436 10.7685Z" fill="#DF6860"/>
</g>
</g>
<g clip-path="url(#clip7_0_3824)">
<g clip-path="url(#clip8_0_3824)">
<path fill-rule="evenodd" clip-rule="evenodd" d="M19.5084 17.8964H18.7724C18.4675 17.8964 18.2202 18.1437 18.2202 18.4487C18.2202 18.7534 18.4675 19.0007 18.7724 19.0007H19.5084C19.8137 19.0007 20.0602 18.7534 20.0602 18.4487C20.0602 18.1437 19.8137 17.8964 19.5084 17.8964Z" fill="#DF6860"/>
</g>
</g>
<g clip-path="url(#clip9_0_3824)">
<g clip-path="url(#clip10_0_3824)">
<path fill-rule="evenodd" clip-rule="evenodd" d="M25.1507 17.8964H24.4147C24.1098 17.8964 23.8624 18.1437 23.8624 18.4487C23.8624 18.7534 24.1098 19.0007 24.4147 19.0007H25.1507C25.4556 19.0007 25.7029 18.7534 25.7029 18.4487C25.7029 18.1437 25.4556 17.8964 25.1507 17.8964Z" fill="#DF6860"/>
</g>
</g>
<g clip-path="url(#clip11_0_3824)">
<path fill-rule="evenodd" clip-rule="evenodd" d="M39.5483 27.852L39.4045 27.076C39.3128 26.5799 38.8798 26.22 38.3747 26.22C38.3115 26.22 38.2473 26.226 38.1849 26.2375L35.2575 26.7751L36.5836 25.8889C36.9308 25.6568 37.1062 25.2414 37.0302 24.8293C37.0097 24.7167 36.9698 24.6084 36.9127 24.507L36.5116 23.7964C36.3744 23.5525 36.1398 23.3714 35.8694 23.2992C35.7367 23.264 35.5986 23.2562 35.463 23.2736C35.6105 22.4592 35.6865 21.6271 35.6865 20.7801C35.6865 20.4042 35.4605 20.0809 35.138 19.9373C35.5595 18.9339 35.5883 17.7852 35.1716 16.7336C35.138 16.648 35.0878 16.5717 35.0225 16.5065C34.958 16.442 34.8824 16.3922 34.7969 16.3578C34.2972 16.1589 33.7725 16.058 33.2362 16.058C33.1681 16.058 33.0994 16.0596 33.0316 16.0629C32.9552 14.5219 31.6793 13.2918 30.1223 13.2918C29.9177 13.2918 29.7176 13.3134 29.5245 13.3542C29.6584 12.5518 29.5795 11.7124 29.2672 10.924C29.2335 10.8375 29.1834 10.7598 29.1148 10.6901C29.0486 10.6241 28.9714 10.5732 28.8855 10.5392C28.3472 10.3246 27.7813 10.2162 27.204 10.2162C26.3341 10.2162 25.502 10.4608 24.7838 10.9153C24.5212 10.155 24.0885 9.44135 23.484 8.83536C23.3065 8.65795 23.0711 8.56 22.8204 8.56C22.5697 8.56 22.3343 8.65795 22.1568 8.83536L19.4838 11.515C18.9886 11.0735 18.3377 10.8097 17.6313 10.8097C17.4707 10.8097 17.3088 10.8238 17.1498 10.8517C16.5741 10.9519 16.044 11.2337 15.6376 11.6466C15.1166 11.3952 14.5204 11.3094 13.9463 11.4094C13.8202 11.4312 13.6981 11.462 13.5793 11.4997V9.43491C13.5793 8.01312 12.4366 6.85446 11.0226 6.83005V5.65905C11.4553 5.58427 11.7857 5.20696 11.7857 4.75329V2.10001C11.7857 1.59267 11.3731 1.17996 10.8652 1.17996H6.37558C5.86812 1.17996 5.45558 1.59267 5.45558 2.10001V4.75329C5.45558 5.20696 5.78592 5.58427 6.21863 5.65905V6.82973C4.80507 6.85428 3.66191 8.01294 3.66191 9.43491V25.5496C2.56024 26.5451 1.87402 27.9341 1.87402 29.4702C1.87402 32.492 4.52566 34.9504 7.78544 34.9504L29.8844 34.9438C30.6393 34.9436 31.3485 34.612 31.8309 34.0346C32.301 33.4722 32.5007 32.7419 32.3852 32.0216L36.7997 32.8149C36.8605 32.8257 36.923 32.8313 36.985 32.8313C37.2053 32.8313 37.4165 32.7639 37.5948 32.6359C37.8241 32.472 37.9799 32.2182 38.0213 31.9397L38.1409 31.1375C38.1578 31.0224 38.1557 30.9069 38.1352 30.7934C38.0591 30.3832 37.7469 30.0576 37.3396 29.9645L35.7835 29.6074L38.7076 29.0703C38.9833 29.0197 39.2224 28.8648 39.3815 28.6344C39.5397 28.4045 39.5993 28.1265 39.5483 27.852ZM30.9832 33.3264C30.7108 33.6524 30.3101 33.8394 29.884 33.8397L29.3046 33.8399L28.9426 31.885C28.8867 31.585 28.5991 31.3867 28.2991 31.4425C27.9995 31.498 27.8015 31.7862 27.8565 32.0859L28.1816 33.8401L26.2819 33.841L26.037 32.519C25.9816 32.2191 25.6935 32.0211 25.3936 32.0767C25.0936 32.1323 24.8955 32.4202 24.9514 32.7201L25.1589 33.8413L20.7399 33.843L20.4075 32.0477C20.3516 31.748 20.0636 31.5498 19.764 31.6054C19.464 31.6608 19.266 31.9491 19.3214 32.2489L19.6169 33.8434L13.1647 33.846H13.1643C12.4744 33.846 11.8831 33.3566 11.7578 32.6816L11.7389 32.5793C11.6144 31.9053 11.9911 31.2385 12.635 30.9937L14.8051 30.1695L14.9666 31.042C15.0159 31.3079 15.2481 31.4935 15.509 31.4935C15.5423 31.4935 15.5764 31.4906 15.6105 31.4844C15.91 31.4287 16.1077 31.1406 16.0526 30.8408L15.8546 29.7711L19.0753 28.5474C19.3605 28.4388 19.5035 28.1201 19.3954 27.8351C19.2873 27.5498 18.9677 27.4065 18.6833 27.515L17.1843 28.0842C16.7639 26.5956 15.6836 25.3519 14.2512 24.6394C14.206 24.3501 14.0001 23.9322 13.2547 23.6382C12.7674 23.4456 12.1313 23.3398 11.4636 23.3398C11.0042 23.3398 10.5653 23.3903 10.1778 23.4829V23.1493C10.1778 22.8443 9.9304 22.597 9.62552 22.597C9.49691 22.597 9.37813 22.6416 9.28444 22.7157C9.19777 22.1399 9.14845 21.5548 9.14066 20.9615H27.1247C27.4296 20.9615 27.6766 20.7142 27.6766 20.4096C27.6766 20.1046 27.4296 19.8573 27.1247 19.8573H26.8983C27.25 19.1331 27.4489 18.3213 27.4489 17.4633C27.4489 16.9762 27.0758 16.575 26.6012 16.5293C26.8079 16.3343 27.0659 16.2031 27.3536 16.1529C27.4379 16.138 27.5233 16.1307 27.608 16.1307C28.3209 16.1307 28.9266 16.6407 29.0482 17.3431C29.0626 17.4246 29.0696 17.5083 29.0696 17.5926C29.07 17.8786 29.2886 18.1171 29.5734 18.142C30.2333 18.1998 30.7732 18.6962 30.8866 19.3487C30.9162 19.5221 30.9125 19.6934 30.8821 19.8573H30.29C29.9851 19.8573 29.7377 20.1046 29.7377 20.4096C29.7377 20.7142 29.9851 20.9615 30.29 20.9615H34.5812C34.5676 21.9745 34.4374 22.9637 34.1941 23.9235L31.2018 25.69C31.0185 25.053 30.5933 24.5128 30.0073 24.1848C29.3498 23.817 28.5687 23.7595 27.864 24.0272L21.7015 26.3683C21.4163 26.4766 21.2733 26.7953 21.3814 27.0803C21.4899 27.3656 21.8091 27.5087 22.0935 27.4006L22.9055 27.0922L23.1573 28.4533C23.2071 28.7189 23.4392 28.9049 23.6998 28.9049C23.7331 28.9049 23.7671 28.9017 23.8012 28.8956C24.1008 28.8401 24.2988 28.5521 24.2434 28.252L23.9549 26.6936L28.2564 25.0595C28.6546 24.9082 29.0963 24.9406 29.4678 25.1487C29.8388 25.3563 30.0956 25.7139 30.1729 26.1299L31.2902 32.1605C31.367 32.5764 31.2552 33.0013 30.9832 33.3264ZM30.1223 14.3959C31.1196 14.3959 31.9308 15.2095 31.9308 16.2095C31.9308 16.2281 31.9299 16.2465 31.9295 16.2649C31.3477 16.454 30.811 16.7703 30.3537 17.1998C30.2805 17.1721 30.207 17.1466 30.131 17.1254C29.9695 16.2531 29.3815 15.5537 28.6044 15.2271C28.927 14.7276 29.4867 14.3959 30.1223 14.3959ZM27.204 11.3203C27.5792 11.3203 27.9478 11.3808 28.3024 11.5009C28.588 12.3496 28.5296 13.2613 28.166 14.0508C27.8668 14.3232 27.6244 14.6566 27.4588 15.0315C27.3602 15.0373 27.2616 15.0481 27.1642 15.065C26.7315 15.1403 26.3279 15.3281 25.9906 15.6004C25.8751 15.3897 25.7342 15.1955 25.5727 15.0206L26.8391 13.7517C27.0541 13.5356 27.054 13.1862 26.8379 12.971C26.6226 12.7554 26.2729 12.7557 26.0572 12.9717L24.6732 14.3588C24.4098 14.2344 24.1255 14.1477 23.8263 14.1073C23.9554 13.4483 24.2754 12.8274 24.7702 12.3317C25.4202 11.6795 26.2848 11.3203 27.204 11.3203ZM22.9732 19.8574H22.4945C22.414 19.6523 22.2147 19.5071 21.9809 19.5071C21.7471 19.5071 21.5482 19.6525 21.4673 19.8574H20.9043C21.035 19.6445 21.0087 19.3623 20.8242 19.1784C20.6084 18.9628 20.2588 18.9634 20.043 19.1791L19.5228 19.7006C19.476 19.7473 19.4402 19.8008 19.4139 19.8574H18.2901C17.8693 19.2115 17.6124 18.4494 17.5817 17.6292H26.3411C26.3111 18.4494 26.0543 19.2115 25.6331 19.8574H24.4636C24.4373 19.8008 24.4016 19.7473 24.3547 19.7006L23.8341 19.1791C23.6188 18.9634 23.2691 18.9625 23.0534 19.1781C22.8689 19.3623 22.8426 19.6445 22.9732 19.8574ZM21.6892 16.525C21.8971 15.7538 22.601 15.1845 23.4343 15.1845C24.2685 15.1845 24.9719 15.7538 25.1803 16.525H21.6892ZM22.8179 9.7359C23.3435 10.3035 23.6907 10.9773 23.8608 11.6858C23.5789 11.992 23.3447 12.3306 23.1602 12.6909C23.076 12.6393 22.9782 12.6091 22.8722 12.6091H22.1366C21.8317 12.6091 21.5848 12.8565 21.5848 13.1614C21.5848 13.4663 21.8317 13.7136 22.1366 13.7136H22.7822C22.746 13.8661 22.7176 14.0202 22.6971 14.1758C22.4777 14.2333 22.2685 14.3152 22.0729 14.4198C21.7047 13.7847 21.0954 13.3114 20.3734 13.1216C20.373 13.1198 20.373 13.1184 20.3726 13.1168C20.329 12.8671 20.2534 12.6299 20.1507 12.4096L22.8179 9.7359ZM12.8372 14.7182C12.8047 14.6275 12.7801 14.5346 12.7641 14.4414C12.6059 13.5283 13.2214 12.6562 14.1361 12.4969C14.2323 12.4802 14.3301 12.4718 14.4266 12.4718C14.7907 12.4718 15.1383 12.5877 15.4321 12.8071C15.5538 12.8979 15.7075 12.9347 15.8566 12.9087C16.0062 12.8829 16.1389 12.7965 16.2232 12.67C16.482 12.279 16.8786 12.0196 17.3396 11.9392C17.4358 11.9223 17.534 11.9138 17.6313 11.9138C18.4491 11.9138 19.1444 12.4993 19.2841 13.3058C19.3001 13.398 19.3087 13.4945 19.3087 13.5919C19.3091 13.8778 19.5277 14.116 19.8125 14.1409C20.4301 14.1953 20.9553 14.5838 21.1989 15.1309C20.8726 15.5225 20.6467 16.0004 20.5608 16.525H17.4123C17.0207 16.525 16.6846 16.7665 16.5445 17.1088C15.8521 16.6368 15.0356 16.3828 14.1801 16.3828C13.6439 16.3828 13.1187 16.4835 12.6186 16.6825C12.534 16.7165 12.4584 16.7665 12.3934 16.831C12.3281 16.8967 12.2776 16.9734 12.2443 17.0578C12.1177 17.3783 12.0331 17.7077 11.9875 18.0392C11.789 17.8138 11.6497 17.5337 11.595 17.2193C11.4652 16.4702 11.8576 15.7243 12.5483 15.4055C12.8085 15.2854 12.9334 14.9873 12.8372 14.7182ZM14.483 19.7064L14.6338 19.8574H13.3077C13.0098 19.1668 12.9646 18.3805 13.2062 17.6433C13.521 17.5393 13.8477 17.4868 14.1801 17.4868C15.0118 17.4868 15.7946 17.812 16.3834 18.4024C16.4619 18.481 16.5346 18.5632 16.6033 18.6483C16.697 19.0718 16.8407 19.4765 17.0257 19.8574H16.1936L15.2649 18.9264C15.0492 18.7108 14.6999 18.7101 14.4838 18.9256C14.268 19.141 14.2676 19.4906 14.483 19.7064ZM12.1317 19.8574H10.1638C10.2513 19.3226 10.5727 18.8668 11.0194 18.5979C11.284 18.952 11.6292 19.2384 12.0265 19.4325C12.0549 19.5756 12.0894 19.7177 12.1317 19.8574ZM6.55967 2.28405H10.6816V4.56925H6.55967V2.28405ZM9.91851 5.67334V6.82883H7.32317V5.67334H9.91851ZM4.76645 11.6741H8.3517C8.65698 11.6741 8.90396 11.427 8.90396 11.122C8.90396 10.817 8.65698 10.5698 8.3517 10.5698H4.76645V9.43491C4.76645 8.60673 5.43832 7.93295 6.26381 7.93295H10.9774C11.8034 7.93295 12.4748 8.60673 12.4748 9.43491V10.5698H11.4442C11.1385 10.5698 10.892 10.817 10.892 11.122C10.892 11.427 11.1385 11.6741 11.4442 11.6741H12.4748V12.1642C11.8424 12.7845 11.5141 13.6941 11.6756 14.6296C11.6764 14.6314 11.6768 14.6334 11.6768 14.6354C10.7913 15.2429 10.3196 16.3233 10.5074 17.408C10.518 17.4713 10.5316 17.5335 10.5468 17.5951C10.2711 17.7472 10.0233 17.9436 9.81125 18.1735H4.76645V11.6741ZM4.76645 19.2776H9.16981C9.11106 19.4638 9.06956 19.6575 9.04984 19.8574H8.95698C8.44866 19.8574 8.0353 20.2712 8.0353 20.7799C8.0353 21.6568 8.11623 22.5174 8.27445 23.3593C8.11582 23.3466 7.95309 23.3398 7.78749 23.3398C7.12018 23.3398 6.48365 23.4456 5.99633 23.6382C5.25091 23.9325 5.04505 24.3505 4.99986 24.6396C4.92053 24.679 4.84328 24.7203 4.76645 24.763V19.2776ZM11.7578 26.0606C11.957 26.2195 12.0783 26.3546 12.1485 26.4524C12.1419 26.4524 12.1354 26.4525 12.1284 26.4525C11.8161 26.4525 11.2544 26.3264 10.6158 25.9729C10.3783 25.8415 10.1589 25.6925 9.98259 25.5427C9.77673 25.3685 9.47473 25.3685 9.26841 25.5431C9.09175 25.6926 8.87272 25.8415 8.63562 25.9729C7.99705 26.3264 7.43535 26.4525 7.12305 26.4525C7.11567 26.4525 7.10866 26.4524 7.1021 26.4524C7.17237 26.3546 7.29398 26.2193 7.49287 26.0602C7.66712 25.9211 7.74026 25.6912 7.67901 25.4772C7.61739 25.263 7.4333 25.1067 7.21222 25.0809C6.67352 25.0178 6.33286 24.8807 6.17341 24.7808C6.37312 24.6564 6.87857 24.4441 7.7879 24.4441C8.54111 24.4441 9.09134 24.6025 9.35513 24.7506C9.52319 24.8449 9.72782 24.8449 9.89592 24.7506C10.1597 24.6025 10.7108 24.4441 11.464 24.4441C12.3729 24.4441 12.8783 24.6564 13.078 24.7808C12.9186 24.8807 12.5775 25.0178 12.0388 25.0809C11.8178 25.107 11.6337 25.2632 11.5725 25.4774C11.5112 25.6912 11.5843 25.9215 11.7578 26.0606ZM10.6536 32.7808L10.6725 32.8831C10.7379 33.2377 10.8768 33.5631 11.0703 33.846H7.78544C5.13463 33.846 2.97774 31.8832 2.97774 29.4702C2.97774 27.8214 3.98532 26.3832 5.46952 25.6374C5.64008 25.7645 5.8525 25.8744 6.1044 25.9628C6.00453 26.1334 5.93511 26.3169 5.91826 26.5085C5.89686 26.7631 5.97456 27.0048 6.13811 27.1894C6.3534 27.433 6.68541 27.5569 7.12305 27.5569C7.70615 27.5569 8.47166 27.3259 9.17022 26.9389C9.33131 26.85 9.48293 26.7561 9.62552 26.6578C9.76812 26.7559 9.92015 26.85 10.0812 26.9391C10.7793 27.3259 11.5449 27.5566 12.1284 27.5569C12.566 27.5569 12.8976 27.433 13.1134 27.1894C13.2765 27.0048 13.355 26.7631 13.3328 26.5085C13.3163 26.3169 13.2469 26.1334 13.1466 25.9628C13.399 25.8741 13.6114 25.7645 13.7819 25.6374C14.9588 26.2288 15.8357 27.256 16.148 28.4782L12.243 29.9616C11.0999 30.396 10.4317 31.5815 10.6536 32.7808ZM33.2362 17.1621C33.5687 17.1621 33.8958 17.2148 34.2093 17.3185C34.4903 18.1735 34.3856 19.0958 33.9455 19.8574H32.458L32.933 19.3816C33.1487 19.1659 33.1479 18.8163 32.9318 18.6009C32.716 18.3856 32.3663 18.3858 32.1514 18.6019L31.9004 18.8534C31.7824 18.4658 31.577 18.119 31.3066 17.8342C31.8543 17.3992 32.5274 17.1621 33.2362 17.1621ZM32.9531 29.0048C32.6959 29.0521 32.5073 29.2738 32.5011 29.5358C32.4954 29.7975 32.6741 30.0273 32.9297 30.0858L37.0405 31.0289L36.9378 31.7178L32.172 30.8612L31.4274 26.8394L35.578 24.389L35.924 25.0013L32.4226 27.3416C32.2052 27.4873 32.1198 27.7656 32.218 28.0082C32.3166 28.2508 32.5718 28.3911 32.8294 28.3439L38.3291 27.3335L38.452 27.9946L32.9531 29.0048Z" fill="#DF6860"/>
</g>
</g>
<defs>
<clipPath id="clip0_0_3824">
<rect width="41" height="36" fill="white"/>
</clipPath>
<clipPath id="clip1_0_3824">
<rect width="6" height="5" fill="white" transform="translate(12 12)"/>
</clipPath>
<clipPath id="clip2_0_3824">
<rect width="6" height="5" fill="white" transform="translate(12 12)"/>
</clipPath>
<clipPath id="clip3_0_3824">
<rect width="6" height="5" fill="white" transform="translate(15 13)"/>
</clipPath>
<clipPath id="clip4_0_3824">
<rect width="6" height="5" fill="white" transform="translate(15 13)"/>
</clipPath>
<clipPath id="clip5_0_3824">
<rect width="5" height="5" fill="white" transform="translate(20 9)"/>
</clipPath>
<clipPath id="clip6_0_3824">
<rect width="5" height="5" fill="white" transform="translate(20 9)"/>
</clipPath>
<clipPath id="clip7_0_3824">
<rect width="5" height="5" fill="white" transform="translate(17 16)"/>
</clipPath>
<clipPath id="clip8_0_3824">
<rect width="5" height="5" fill="white" transform="translate(17 16)"/>
</clipPath>
<clipPath id="clip9_0_3824">
<rect width="5" height="5" fill="white" transform="translate(22 16)"/>
</clipPath>
<clipPath id="clip10_0_3824">
<rect width="5" height="5" fill="white" transform="translate(22 16)"/>
</clipPath>
<clipPath id="clip11_0_3824">
<rect width="41" height="36" fill="white"/>
</clipPath>
</defs>
</svg>
